 <svg version="1.0" xmlns="http://www.w3.org/2000/svg" width="700.000000pt" height="676.000000pt" viewBox="0 0 700.000000 676.000000" preserveAspectRatio="xMidYMid meet">
<metadata>
Created by potrace 1.12, written by Peter Selinger 2001-2015
</metadata>
<g transform="translate(0.000000,676.000000) scale(0.100000,-0.100000)" fill="#000000" stroke="none">
<path d="M3386 6744 c-4 -9 0 -24 9 -34 22 -24 22 -222 0 -240 -12 -10 -13
-16 -4 -26 8 -10 36 -14 98 -13 69 0 94 5 125 22 64 35 81 67 79 144 -1 39 -7
72 -16 82 -8 9 -17 23 -20 33 -3 9 -21 19 -39 23 -18 4 -36 13 -40 19 -5 8
-13 8 -27 -1 -13 -8 -22 -9 -26 -3 -3 6 -35 10 -70 10 -49 0 -64 -4 -69 -16z
m179 -150 c0 -99 -3 -119 -15 -119 -12 0 -16 20 -18 109 -3 117 1 140 21 133
9 -3 12 -36 12 -123z"></path>
<path d="M3043 6723 c-3 -10 -8 -21 -10 -25 -2 -4 2 -5 10 -2 24 9 30 -13 34
-123 4 -86 2 -108 -11 -122 -21 -23 -11 -31 40 -31 51 0 63 14 36 43 -14 16
-21 42 -25 92 l-5 70 34 -40 c18 -22 34 -44 34 -49 0 -4 19 -30 41 -58 38 -44
45 -49 78 -46 36 3 36 4 39 52 2 27 -2 54 -7 59 -6 6 -11 44 -11 84 0 62 3 75
20 85 33 21 23 28 -35 28 -59 0 -64 -4 -39 -31 9 -10 14 -30 12 -50 l-3 -33
-45 57 -45 56 -68 1 c-56 0 -69 -3 -74 -17z"></path>
<path d="M3751 6711 c-37 -36 -42 -86 -11 -119 11 -12 20 -26 20 -32 0 -5 8
-10 18 -11 32 -1 97 -43 100 -65 3 -24 -28 -37 -66 -28 -21 6 -52 53 -52 81 0
8 -7 13 -17 11 -13 -2 -19 -16 -23 -48 -9 -79 -10 -78 99 -76 119 1 141 16
149 96 4 43 1 55 -18 75 -13 14 -29 25 -36 25 -6 0 -17 7 -24 15 -7 8 -15 13
-19 11 -4 -3 -18 4 -31 14 l-25 19 21 21 c19 19 23 20 48 6 15 -7 35 -29 44
-47 24 -45 37 -38 40 24 l3 52 -95 3 c-93 3 -95 3 -125 -27z"></path>
<path d="M2903 6714 c-3 -9 2 -21 14 -29 17 -12 22 -31 28 -116 7 -100 6 -103
-17 -121 -28 -21 -58 -23 -58 -4 0 8 -5 16 -11 18 -6 2 -11 51 -12 131 l-2
127 -37 0 c-21 0 -38 -4 -38 -10 0 -5 -18 -10 -39 -10 -45 0 -62 -17 -38 -35
10 -7 17 -26 17 -44 0 -17 4 -39 9 -49 5 -9 13 -48 18 -87 8 -70 8 -70 41 -73
17 -2 32 -7 32 -13 0 -13 74 -11 88 3 9 9 12 9 12 0 0 -19 67 27 74 51 3 12 3
69 0 127 -6 90 -4 107 10 119 27 23 18 31 -34 31 -37 0 -52 -4 -57 -16z"></path>
<path d="M4280 6675 c0 -14 -6 -25 -13 -25 -6 0 -18 -15 -25 -32 -7 -18 -22
-50 -32 -70 -11 -20 -20 -43 -20 -51 0 -7 -16 -28 -35 -47 -31 -31 -33 -34
-17 -46 24 -19 92 -18 92 1 0 7 -8 19 -17 25 -13 8 -14 13 -5 16 6 3 12 15 12
27 1 20 2 20 11 5 5 -10 21 -18 33 -18 27 0 42 -26 25 -46 -15 -18 -3 -34 26
-34 13 0 27 -4 30 -10 3 -5 26 -10 51 -10 48 0 53 8 30 52 -8 15 -17 78 -21
151 l-7 125 -46 6 c-68 9 -72 8 -72 -19z m5 -136 c0 -30 -3 -34 -29 -37 -21
-3 -27 0 -23 10 32 75 52 86 52 27z"></path>
<path d="M2450 6663 c-23 -9 -60 -45 -60 -60 0 -7 -4 -13 -10 -13 -6 0 -10
-30 -10 -70 l0 -70 49 -51 50 -51 66 4 c37 2 69 9 73 14 4 6 14 13 23 16 39
15 64 138 40 201 -5 13 -23 38 -41 55 -29 30 -36 32 -98 31 -37 0 -74 -3 -82
-6z m84 -35 c3 -13 6 -37 6 -53 0 -17 4 -35 9 -40 15 -16 24 -142 11 -150 -26
-16 -48 26 -55 101 -4 41 -11 77 -16 80 -10 6 -12 68 -2 77 14 15 41 6 47 -15z"></path>
<path d="M4500 6651 c0 -5 6 -14 14 -20 15 -12 12 -75 -4 -96 -5 -5 -11 -40
-15 -77 -5 -48 -11 -68 -21 -68 -17 0 -19 -40 -1 -41 6 0 42 -3 80 -8 66 -7
76 -4 58 15 -14 14 -1 104 15 104 10 0 14 -16 14 -63 0 -65 11 -87 42 -87 10
0 18 -4 18 -10 0 -15 28 -12 55 6 24 16 35 54 15 54 -5 0 -7 13 -3 30 4 22 0
36 -13 51 -18 20 -18 21 14 45 39 31 44 82 12 114 -19 19 -99 44 -109 35 -2
-3 -10 0 -17 6 -8 6 -20 9 -29 6 -8 -4 -17 -2 -20 3 -8 12 -105 13 -105 1z
m174 -57 c17 -7 22 -34 7 -34 -6 0 -11 -15 -13 -32 -2 -22 -9 -34 -21 -36 -17
-3 -18 1 -11 45 9 66 10 68 38 57z"></path>
<path d="M2288 6633 c-35 -5 -57 -30 -34 -39 12 -5 16 -18 15 -53 -1 -25 -3
-38 -6 -28 -2 9 -9 17 -14 17 -5 0 -9 5 -9 10 0 6 -10 25 -22 43 -13 18 -24
33 -24 35 -6 12 -44 -27 -44 -46 0 -12 -6 -31 -12 -42 -10 -16 -10 -24 -1 -40
8 -12 9 -21 3 -25 -6 -3 -10 1 -10 9 0 9 -4 16 -10 16 -5 0 -13 18 -16 40 -7
45 -27 68 -46 52 -7 -5 -32 -13 -55 -17 -43 -7 -93 -45 -59 -45 9 0 19 -8 23
-17 6 -17 62 -103 74 -113 3 -3 8 -12 12 -20 18 -42 55 -95 65 -94 7 1 21 2
32 3 18 1 20 8 20 61 0 60 13 79 26 38 4 -13 16 -35 27 -50 16 -22 26 -26 46
-21 14 3 28 7 30 9 2 2 6 58 8 124 3 97 8 128 24 154 18 30 18 34 3 40 -8 3
-16 5 -17 5 -1 -1 -14 -4 -29 -6z"></path>
<path d="M4863 6540 c0 -28 -5 -56 -11 -63 -5 -6 -13 -32 -16 -57 -7 -47 -24
-90 -40 -101 -16 -12 3 -39 28 -39 14 0 27 -4 30 -9 3 -4 40 -14 83 -21 43 -6
83 -16 89 -21 12 -10 24 30 24 77 0 29 -11 30 -35 4 -21 -24 -91 -29 -82 -6 3
7 9 34 12 60 4 25 11 49 16 52 5 2 11 27 15 54 3 27 12 51 19 54 16 6 65 -37
65 -57 0 -8 6 -20 14 -26 17 -14 29 3 40 55 6 25 3 32 -17 43 -12 7 -39 13
-60 14 -20 1 -37 5 -37 10 0 4 -11 7 -24 7 -14 0 -28 5 -31 10 -3 6 -23 10
-44 10 l-37 0 -1 -50z"></path>
<path d="M1620 6458 c-19 -5 -39 -14 -44 -19 -6 -5 -18 -9 -28 -9 -25 0 -22
-21 6 -47 13 -13 27 -39 30 -58 4 -19 10 -35 15 -35 9 0 31 -90 31 -126 0 -18
5 -24 23 -24 35 0 98 20 103 33 2 7 25 12 54 13 27 0 52 3 56 6 8 9 -6 71 -21
92 -12 16 -17 17 -30 6 -8 -7 -15 -22 -15 -34 0 -21 -17 -46 -31 -46 -10 0
-36 54 -44 92 -4 18 -12 39 -18 46 -5 7 -11 36 -13 65 -3 58 -11 64 -74 45z"></path>
<path d="M5300 6308 l0 -163 27 -12 c35 -17 53 -16 53 0 0 8 9 22 20 32 11 10
20 26 20 37 0 10 7 18 15 18 8 0 15 5 15 11 0 21 90 118 112 121 56 8 13 48
-53 48 -31 0 -36 -9 -17 -28 9 -9 5 -20 -18 -49 -45 -55 -54 -53 -54 11 0 43
3 56 15 56 20 0 19 23 -2 42 -16 14 -95 38 -122 38 -7 0 -11 -55 -11 -162z"></path>
<path d="M4991 6435 c-23 -25 -23 -26 -6 -61 13 -29 19 -33 31 -23 16 14 37
85 29 99 -10 16 -29 11 -54 -15z"></path>
<path d="M1363 6369 c-5 -5 -23 -11 -40 -11 -36 -1 -63 -43 -32 -51 11 -3 19
-14 19 -24 0 -11 7 -28 15 -39 8 -10 15 -25 15 -32 0 -7 9 -32 21 -57 11 -24
21 -59 22 -77 2 -30 5 -33 31 -31 16 1 32 6 35 11 3 5 29 15 56 22 28 7 52 16
55 20 3 3 19 10 37 16 l32 9 -15 35 c-9 19 -19 41 -23 49 -14 27 -29 22 -36
-11 -8 -41 -26 -78 -37 -78 -5 0 -16 17 -24 38 -8 20 -22 51 -30 69 -8 17 -14
38 -14 46 0 9 -6 17 -12 19 -8 3 -12 21 -12 46 1 39 0 42 -25 42 -15 0 -32 -5
-38 -11z"></path>
<path d="M5604 6355 c-3 -8 -3 -19 1 -24 6 -11 -6 -43 -76 -193 -7 -16 -16
-28 -21 -28 -4 0 -8 -8 -8 -18 0 -16 26 -32 80 -47 14 -4 28 -12 32 -18 11
-17 39 13 33 34 -4 11 5 43 19 73 14 30 26 58 26 62 0 21 37 84 53 89 43 15 0
48 -96 74 -30 8 -39 7 -43 -4z"></path>
<path d="M1135 6276 c-11 -7 -35 -17 -53 -21 -25 -5 -30 -10 -23 -19 11 -13
17 -71 26 -231 5 -88 6 -90 29 -88 14 1 34 11 45 22 l21 21 -25 16 c-33 22
-32 36 5 53 35 15 60 2 60 -30 0 -14 7 -19 26 -19 27 0 109 34 118 49 3 5 -21
37 -54 72 -33 34 -60 67 -60 73 -1 6 -22 35 -48 64 -43 48 -49 51 -67 38z m16
-174 c34 -28 37 -42 10 -42 -11 0 -21 -6 -24 -12 -8 -22 -14 -5 -20 52 -3 30
-3 49 0 41 3 -8 19 -26 34 -39z"></path>
<path d="M5803 6262 c-40 -19 -67 -72 -58 -112 4 -17 11 -30 16 -30 5 0 9 -5
9 -12 0 -7 16 -29 36 -49 43 -44 40 -69 -5 -69 -35 0 -51 22 -51 72 0 19 -5
39 -11 45 -14 14 -39 6 -39 -13 0 -8 -7 -25 -15 -38 -9 -13 -13 -31 -9 -40 8
-20 69 -47 89 -40 9 4 15 0 15 -9 0 -19 47 -30 86 -21 50 12 84 52 84 100 0
36 -7 49 -45 92 -53 59 -58 82 -16 82 37 0 61 -31 61 -77 0 -47 23 -42 49 9
21 43 15 73 -14 62 -8 -3 -20 4 -27 15 -7 12 -20 21 -28 21 -8 0 -28 7 -44 15
-33 18 -41 17 -83 -3z"></path>
<path d="M6067 6173 c-3 -5 -8 -27 -12 -50 -4 -24 -11 -45 -16 -49 -5 -3 -25
-39 -45 -80 -20 -41 -40 -74 -45 -74 -5 0 -9 -8 -9 -18 0 -19 81 -62 118 -62
17 0 22 6 22 25 0 14 17 57 38 97 53 102 64 118 84 118 10 0 18 4 18 8 0 13
-35 42 -50 42 -7 0 -28 11 -46 25 -34 26 -50 31 -57 18z"></path>
<path d="M762 6104 c-22 -15 -22 -17 -6 -35 9 -10 23 -19 30 -19 7 0 18 -9 24
-20 6 -11 17 -20 25 -20 20 0 19 44 0 60 -8 7 -15 21 -15 31 0 24 -27 25 -58
3z"></path>
<path d="M6241 6077 c-6 -6 -11 -21 -11 -33 0 -26 -11 -53 -46 -109 -13 -22
-30 -52 -36 -67 -7 -16 -18 -28 -25 -28 -28 0 -12 -37 25 -56 20 -10 39 -22
40 -26 2 -5 12 -8 22 -8 10 0 25 -6 33 -14 20 -20 84 -36 118 -29 38 7 69 65
50 95 -15 24 -9 34 29 41 18 4 30 13 30 22 0 8 5 15 10 15 16 0 12 38 -7 68
-25 40 -44 56 -83 72 -19 7 -42 19 -51 27 -8 7 -23 13 -32 13 -9 0 -17 4 -17
9 0 14 -37 20 -49 8z m149 -114 c0 -7 -13 -27 -28 -45 -21 -23 -34 -29 -48
-24 -10 4 -14 10 -9 14 6 4 17 20 25 36 36 71 34 68 47 49 7 -9 13 -23 13 -30z
m-76 -131 c-4 -12 -10 -22 -15 -22 -5 0 -9 -6 -9 -14 0 -19 -27 -39 -44 -33
-12 5 -11 13 7 49 31 64 38 72 53 56 8 -7 11 -23 8 -36z"></path>
<path d="M671 6059 c-19 -10 -39 -23 -44 -28 -6 -6 -19 -11 -29 -11 -10 0 -24
-13 -32 -29 -14 -26 -14 -30 -1 -41 8 -7 15 -18 15 -24 0 -6 9 -17 20 -24 19
-12 20 -10 20 38 0 27 4 50 8 50 11 0 42 -45 67 -95 11 -22 27 -51 36 -65 10
-14 19 -36 20 -50 4 -27 46 -41 59 -21 3 7 22 20 41 30 35 19 52 51 26 51 -8
0 -17 8 -21 18 -3 9 -19 40 -35 67 -16 28 -41 74 -57 103 -30 57 -40 60 -93
31z"></path>
<path d="M450 5930 c-8 -5 -23 -11 -33 -14 -25 -8 -16 -30 12 -34 15 -2 28
-16 37 -38 8 -19 18 -34 23 -34 5 0 12 -8 15 -17 7 -18 32 -63 51 -93 13 -19
14 -60 2 -60 -14 0 -77 72 -77 87 0 8 -7 16 -15 19 -8 4 -15 10 -15 15 0 4
-12 25 -26 46 -14 21 -23 46 -20 56 2 11 -2 21 -11 24 -19 7 -63 -39 -63 -66
0 -9 -5 -22 -12 -29 -9 -9 -9 -15 0 -24 7 -7 12 -20 12 -30 0 -29 48 -90 92
-116 33 -20 49 -24 90 -19 51 6 108 39 108 62 0 7 6 15 12 17 8 3 13 26 13 64
0 46 -6 67 -24 94 -31 45 -71 79 -93 80 -9 0 -20 5 -23 10 -7 12 -34 12 -55 0z"></path>
<path d="M6550 5900 c0 -18 -24 -65 -40 -80 -3 -3 -11 -16 -18 -30 -7 -14 -21
-38 -32 -55 -11 -16 -23 -36 -26 -42 -3 -7 -15 -13 -25 -13 -12 0 -19 -7 -19
-20 0 -11 7 -20 15 -20 9 0 18 -6 21 -14 3 -8 18 -18 34 -21 16 -3 31 -13 34
-21 3 -8 10 -14 17 -14 6 0 22 -9 36 -20 14 -11 33 -20 42 -20 9 0 32 -17 51
-36 19 -20 49 -42 66 -50 17 -7 36 -20 44 -28 7 -9 17 -16 23 -16 5 0 15 -7
21 -16 11 -14 16 -12 44 20 18 20 32 43 32 51 0 17 -26 20 -35 5 -6 -10 -105
-14 -105 -4 0 10 72 94 81 94 5 0 9 -16 9 -35 0 -19 4 -35 8 -35 16 0 61 55
68 84 7 31 5 31 -71 9 -16 -5 -15 -1 8 20 15 14 27 30 27 34 0 4 9 19 20 33
18 23 20 24 20 5 0 -12 5 -26 12 -33 7 -7 11 -28 10 -47 -3 -46 18 -46 52 -2
32 42 32 48 -2 69 -60 38 -67 43 -75 56 -4 6 -14 12 -21 12 -7 0 -21 9 -31 20
-24 26 -75 27 -75 1 0 -10 -9 -30 -20 -44 -11 -14 -20 -28 -20 -32 0 -4 -15
-25 -33 -48 -19 -23 -37 -50 -40 -59 -6 -18 -37 -25 -37 -9 0 4 9 20 20 34 11
14 20 28 20 31 0 13 -55 5 -72 -11 -15 -14 -23 -15 -38 -6 -14 10 -19 9 -24
-2 -3 -8 -11 -15 -17 -15 -8 0 -7 5 2 16 7 9 18 24 24 33 66 110 120 181 136
181 12 0 19 7 19 20 0 11 -7 20 -15 20 -8 0 -15 6 -15 14 0 8 -15 17 -34 20
-19 4 -39 13 -46 21 -17 21 -30 19 -30 -5z"></path>
<path d="M3345 5881 c-16 -4 -47 -15 -67 -24 -21 -9 -41 -17 -45 -17 -12 0
-83 -67 -83 -78 0 -5 -9 -17 -20 -27 -11 -10 -20 -25 -20 -34 0 -9 -7 -27 -16
-40 -12 -17 -18 -55 -21 -154 -2 -73 -8 -141 -13 -152 -5 -11 -11 -41 -15 -67
-3 -25 -12 -51 -19 -58 -8 -6 -17 -27 -21 -46 -8 -47 15 -74 62 -74 32 0 34
-2 31 -27 l-3 -28 -145 -12 c-80 -7 -153 -18 -163 -23 -10 -6 -85 -14 -168
-17 -82 -3 -149 -10 -149 -15 0 -4 -112 -8 -250 -8 -199 0 -250 -3 -250 -13 0
-16 61 -77 77 -77 6 0 13 -5 15 -11 2 -6 25 -13 51 -16 26 -3 47 -10 47 -14 0
-5 20 -9 44 -9 33 0 52 -7 74 -25 17 -14 34 -25 40 -25 6 0 12 -3 14 -7 6 -15
70 -43 98 -43 30 0 57 -12 107 -48 39 -28 112 -42 219 -42 57 0 93 -5 116 -17
58 -29 65 -32 104 -39 22 -3 44 -10 49 -14 6 -5 25 -10 44 -12 53 -5 49 -24
-6 -31 -72 -8 -137 -49 -162 -101 -29 -60 -28 -139 2 -180 13 -17 26 -39 30
-48 3 -10 11 -18 18 -18 6 0 31 -18 56 -40 25 -22 52 -40 59 -40 8 0 14 -4 14
-10 0 -5 14 -10 30 -10 17 0 30 5 30 10 0 6 6 10 13 10 8 0 24 11 37 24 12 14
43 35 69 47 46 23 53 25 71 28 6 0 10 6 10 11 0 6 -15 10 -34 10 -19 0 -38 5
-41 10 -4 6 -15 8 -25 5 -10 -3 -21 -1 -25 5 -3 5 -14 10 -23 10 -9 0 -29 6
-43 14 -14 7 -37 16 -50 19 -33 8 -57 52 -43 75 16 25 57 26 79 2 10 -11 24
-20 31 -20 7 0 14 -6 17 -12 2 -9 28 -13 82 -13 54 0 80 4 83 13 2 6 10 12 18
12 22 0 17 69 -8 118 -23 42 -67 72 -106 72 -12 0 -23 4 -27 9 -3 5 25 12 62
16 38 4 80 12 96 18 l27 12 0 177 0 177 -53 26 c-30 13 -68 28 -85 31 -18 4
-35 11 -38 15 -3 5 -15 9 -28 9 -32 0 -42 15 -38 59 4 38 6 40 45 46 23 4 47
12 54 17 6 5 24 8 39 6 22 -2 30 -10 36 -34 4 -18 23 -43 43 -58 l35 -27 2
-402 3 -402 48 -3 c76 -5 77 -4 77 189 0 156 1 169 18 169 10 0 24 -6 31 -12
16 -17 321 -18 342 -2 8 6 30 14 51 18 20 4 57 18 84 32 42 22 58 25 139 23
51 -1 97 1 101 4 5 2 28 8 51 12 23 3 47 13 54 21 6 8 17 14 23 14 6 0 17 9
24 20 9 14 23 20 51 20 22 0 42 4 45 9 3 4 20 11 37 15 18 3 51 22 75 41 36
30 50 35 93 35 27 0 52 4 55 9 4 5 24 12 46 16 29 5 53 19 85 52 25 24 45 49
45 54 0 5 -104 9 -250 9 -137 0 -250 4 -250 9 0 4 -67 10 -148 13 -82 3 -157
11 -168 17 -10 6 -84 16 -164 23 -145 13 -145 13 -145 38 0 22 5 25 45 28 24
2 50 8 57 14 20 16 16 77 -7 105 -11 14 -20 32 -20 39 0 8 -4 14 -9 14 -5 0
-12 12 -16 27 -3 15 -11 31 -17 34 -5 4 -12 37 -15 75 -3 38 -10 74 -15 81 -5
6 -8 22 -6 35 4 31 -22 148 -33 148 -5 0 -9 6 -9 13 0 25 -115 134 -170 161
-48 24 -69 28 -170 31 -63 2 -128 0 -145 -4z m373 -733 c2 -4 15 -8 28 -8 44
0 64 -17 64 -56 0 -28 -5 -36 -27 -45 -16 -6 -35 -15 -43 -19 -9 -4 -31 -11
-50 -15 -19 -4 -37 -11 -40 -14 -3 -4 -21 -12 -40 -17 l-35 -10 -3 -109 c-4
-170 -22 -155 -22 19 l0 149 34 38 c19 21 38 54 42 73 6 36 6 36 48 29 22 -3
43 -10 44 -15z"></path>
<path d="M189 5772 c-26 -22 -21 -49 12 -54 13 -2 30 -17 40 -35 20 -35 19
-38 -9 -24 -45 25 -110 51 -124 51 -9 0 -21 -7 -28 -15 -7 -8 -16 -15 -21 -15
-11 0 -59 -48 -59 -60 0 -4 18 -11 41 -15 30 -5 39 -11 35 -22 -6 -15 16 -50
64 -101 17 -19 24 -39 24 -64 1 -32 4 -38 22 -38 21 0 64 38 64 57 0 7 -12 13
-27 15 -16 2 -33 14 -42 29 -9 14 -24 38 -35 53 -24 34 -17 41 20 21 16 -8 35
-15 42 -15 7 0 32 -10 55 -22 78 -40 76 -40 106 -17 27 19 28 23 15 48 -7 14
-22 36 -34 48 -11 12 -20 26 -20 31 0 5 -11 20 -24 34 -12 14 -26 32 -29 39
-4 8 -12 22 -19 31 -10 14 -10 22 0 38 11 18 10 20 -17 20 -16 0 -39 -8 -52
-18z"></path>
<path d="M303 4656 c3 -87 9 -161 14 -165 6 -3 13 -28 17 -55 4 -27 14 -59 21
-70 7 -12 16 -37 20 -56 4 -19 13 -42 20 -50 7 -8 20 -34 31 -57 10 -24 21
-43 26 -43 4 0 8 -6 8 -14 0 -8 11 -27 24 -43 13 -15 26 -39 30 -53 4 -14 4
-20 -1 -15 -4 6 -23 20 -40 33 -32 22 -33 22 -33 3 0 -11 4 -22 9 -25 5 -3 12
-27 16 -53 4 -27 13 -64 22 -83 42 -101 87 -178 111 -193 6 -4 12 -13 12 -19
0 -6 -8 -4 -18 5 -10 10 -23 17 -29 17 -6 0 -17 10 -26 23 -17 26 -33 18 -19
-10 18 -33 36 -78 37 -88 0 -5 17 -44 39 -85 21 -41 44 -85 50 -97 6 -13 14
-23 19 -23 4 0 7 -6 7 -13 0 -8 9 -22 20 -32 11 -10 20 -22 20 -27 0 -5 16
-24 35 -42 19 -19 35 -37 35 -42 0 -4 10 -18 22 -31 25 -27 17 -44 -10 -20
-10 10 -23 17 -29 17 -6 0 -14 7 -17 16 -4 9 -9 14 -13 11 -10 -10 18 -69 54
-114 18 -23 33 -45 33 -50 0 -11 133 -143 144 -143 4 0 29 -18 54 -41 26 -23
57 -45 70 -50 12 -5 22 -16 22 -25 0 -14 -9 -16 -54 -12 -46 4 -53 2 -48 -11
7 -21 83 -101 95 -101 5 0 32 -19 59 -42 51 -43 151 -98 178 -98 20 -1 50 -24
50 -39 0 -13 -66 -15 -74 -3 -4 7 -41 9 -65 3 -9 -2 74 -60 86 -61 6 0 13 -3
15 -7 4 -10 64 -39 111 -53 22 -7 51 -18 65 -26 15 -8 35 -14 45 -14 9 0 17
-4 17 -10 0 -5 12 -10 26 -10 14 0 34 -5 45 -10 20 -11 26 -30 9 -30 -6 0 -22
-7 -36 -17 l-25 -16 38 -18 c21 -10 48 -18 60 -19 12 0 24 -4 28 -10 3 -5 12
-7 20 -3 9 3 21 0 28 -6 7 -5 57 -12 110 -13 73 -2 97 -6 97 -16 0 -8 -9 -16
-20 -19 -11 -3 -20 -11 -20 -17 0 -15 60 -42 113 -51 42 -8 48 -21 15 -34 -22
-9 -21 -10 17 -25 22 -10 50 -22 63 -29 31 -15 235 -14 240 2 6 17 42 13 42
-4 0 -8 -8 -23 -19 -34 -17 -17 -17 -18 0 -30 24 -14 92 -14 106 0 6 6 16 8
22 5 13 -9 15 -63 2 -71 -15 -8 -41 -66 -41 -88 0 -16 -6 -14 -41 18 -35 31
-46 36 -73 31 -46 -9 -57 -27 -59 -89 l-2 -55 -55 5 c-30 3 -63 13 -73 21 -11
10 -43 18 -83 20 -35 2 -64 8 -64 13 0 12 -107 11 -115 -1 -3 -5 -28 -10 -54
-10 -52 0 -155 -16 -186 -29 -60 -25 -133 -63 -155 -80 -23 -18 -24 -25 -22
-88 2 -37 8 -72 13 -78 5 -5 9 -24 9 -42 0 -31 -2 -33 -27 -27 -16 4 -29 11
-31 15 -2 5 -20 11 -40 15 -20 4 -43 12 -51 18 -21 17 -300 15 -337 -3 -16 -7
-49 -23 -74 -34 -48 -23 -180 -143 -180 -164 0 -7 -9 -30 -20 -50 -11 -21 -20
-45 -20 -55 0 -9 -4 -20 -10 -23 -14 -9 -13 -82 1 -91 7 -4 29 11 53 37 51 55
105 89 141 89 26 0 27 -2 20 -37 -4 -21 -11 -43 -17 -50 -5 -7 -12 -66 -15
-133 -6 -113 -5 -120 13 -120 13 1 27 17 43 53 27 56 87 127 108 127 7 0 13 4
13 10 0 5 16 12 35 16 19 3 38 10 41 15 7 11 61 12 68 0 3 -4 33 -11 67 -15
34 -3 67 -10 73 -15 6 -5 38 -14 71 -21 33 -7 64 -17 69 -22 6 -4 49 -8 96 -8
116 0 120 4 120 137 0 69 4 104 13 111 7 6 36 14 65 18 29 4 55 11 58 16 10
16 34 -14 34 -43 0 -16 4 -37 10 -47 5 -9 12 -51 15 -93 11 -130 40 -157 172
-158 45 -1 84 3 87 8 4 5 24 12 46 16 22 4 40 10 40 15 0 4 17 11 37 15 20 4
46 13 57 21 11 8 27 14 34 14 7 0 46 15 85 34 79 36 107 48 122 51 13 2 43 13
80 30 17 8 44 17 60 20 17 4 39 11 51 17 33 15 69 6 72 -19 2 -12 10 -27 18
-33 10 -9 14 -34 14 -86 0 -58 3 -74 14 -74 8 0 17 4 20 9 3 5 22 12 41 15 19
4 35 10 35 14 0 7 48 32 62 32 4 0 8 -5 8 -12 0 -26 43 -97 62 -104 16 -5 29
2 53 29 33 36 55 35 55 -4 0 -10 4 -20 9 -23 5 -3 15 -29 22 -58 16 -67 50
-133 69 -133 14 0 35 33 89 142 13 26 27 55 32 64 4 9 11 33 14 53 12 62 32
55 75 -28 26 -50 46 -56 74 -21 14 17 27 46 31 65 10 53 13 54 60 15 24 -19
48 -35 54 -35 6 0 11 -4 11 -9 0 -9 55 -41 72 -41 4 0 8 45 8 99 0 56 4 103
10 106 6 3 10 15 10 26 0 14 7 19 24 19 14 0 28 -5 31 -10 3 -5 16 -10 28 -10
12 0 34 -6 49 -14 14 -8 45 -17 67 -21 23 -4 43 -11 46 -16 3 -4 25 -14 48
-20 23 -6 44 -14 47 -18 8 -10 96 -51 110 -51 6 0 24 -6 38 -13 15 -8 42 -21
60 -30 19 -9 51 -20 73 -23 22 -4 42 -11 45 -15 3 -5 38 -9 79 -9 130 0 161
35 178 200 10 106 29 158 51 142 6 -5 36 -12 66 -16 30 -4 60 -12 67 -18 9 -7
13 -43 13 -117 0 -70 4 -111 12 -119 14 -14 179 -17 194 -3 5 4 37 14 72 21
34 7 62 16 62 21 0 4 29 11 65 14 36 4 65 11 65 16 0 12 77 12 84 0 3 -4 23
-11 45 -15 22 -3 41 -10 43 -14 1 -4 18 -18 36 -31 17 -12 32 -29 32 -37 0 -8
4 -14 9 -14 5 0 21 -25 36 -55 40 -86 55 -75 55 45 0 55 -4 108 -9 118 -13 26
-31 86 -31 105 0 32 63 21 112 -18 23 -20 53 -43 65 -53 12 -9 22 -23 23 -29
0 -17 15 -16 30 2 8 10 9 19 3 28 -6 6 -13 32 -17 57 -4 24 -10 49 -15 55 -4
5 -14 26 -21 45 -8 19 -35 57 -62 84 -26 27 -48 52 -48 56 0 4 -39 27 -87 51
l-88 44 -151 0 c-98 0 -156 -4 -165 -11 -8 -7 -30 -15 -49 -19 -19 -4 -41 -12
-47 -17 -24 -19 -43 -1 -43 42 0 22 5 40 10 40 6 0 10 26 10 59 0 70 -7 78
-122 134 -78 38 -159 57 -244 57 -29 0 -56 5 -59 10 -3 6 -46 10 -95 10 -49 0
-92 -4 -95 -10 -3 -5 -15 -10 -25 -10 -10 0 -32 -12 -49 -26 -30 -25 -31 -25
-61 -7 -25 14 -34 15 -50 5 -33 -20 -42 -15 -35 20 4 18 11 37 16 42 5 6 9 31
9 57 0 38 -5 51 -22 63 -30 21 -60 20 -91 -4 -14 -11 -29 -20 -34 -20 -5 0
-22 -13 -38 -30 -15 -16 -31 -27 -35 -25 -7 5 -11 195 -4 195 3 0 23 -9 47
-19 54 -25 114 -41 154 -41 17 0 35 -4 38 -10 10 -15 75 -12 92 5 13 14 12 17
-9 34 -18 16 -20 22 -11 32 10 10 18 10 38 -1 30 -16 217 -19 237 -3 7 5 32
15 56 22 46 13 54 26 22 36 -28 9 -17 22 27 30 43 7 112 37 113 47 0 4 -9 12
-20 18 -11 6 -20 16 -20 23 0 10 25 14 92 15 50 1 96 6 102 11 6 5 42 14 80
20 38 7 79 19 90 27 l21 14 -22 6 c-13 4 -23 10 -23 15 0 5 -7 9 -15 9 -29 0
-15 28 18 35 31 6 47 12 112 40 17 8 48 19 70 26 52 16 164 75 192 101 24 22
21 47 -3 27 -7 -6 -20 -9 -29 -6 -8 4 -17 2 -20 -3 -8 -13 -85 -13 -85 0 0 10
40 30 103 51 20 7 37 17 37 21 0 4 5 8 11 8 6 0 28 14 49 30 21 17 43 30 49
30 13 0 161 139 161 151 0 4 -25 5 -55 2 -44 -5 -55 -3 -55 9 0 15 52 58 70
58 23 0 255 245 283 298 31 62 34 82 9 60 -23 -20 -82 -48 -82 -39 0 11 39 51
50 51 6 0 10 5 10 11 0 6 18 32 40 58 22 26 40 51 40 55 0 5 12 25 28 45 15
20 47 77 71 126 23 50 46 97 51 105 4 9 11 31 15 50 l8 35 -47 -38 c-45 -38
-61 -41 -30 -6 24 26 80 132 115 214 10 25 32 146 27 151 -2 2 -21 -10 -41
-27 -20 -17 -37 -26 -37 -20 0 5 6 14 13 18 8 4 17 15 21 23 4 8 18 33 31 55
14 22 30 51 36 65 6 14 24 52 40 84 17 32 32 78 36 102 3 24 9 44 14 44 4 0
11 29 14 65 4 36 11 65 16 65 5 0 9 56 9 125 0 126 -9 155 -31 98 -11 -30
-202 -223 -220 -223 -6 0 -28 -13 -48 -28 -20 -16 -44 -32 -53 -35 -10 -4 -18
-11 -18 -16 0 -5 -13 -12 -29 -16 -16 -3 -32 -13 -35 -21 -3 -8 -12 -14 -19
-14 -8 0 -20 -7 -27 -15 -7 -8 -21 -15 -32 -15 -10 0 -21 -6 -24 -14 -3 -8
-19 -18 -35 -21 -16 -4 -29 -10 -29 -14 0 -4 -17 -13 -37 -20 -21 -7 -52 -24
-70 -37 -17 -13 -38 -24 -45 -24 -14 0 -120 -51 -128 -62 -3 -3 -18 -10 -33
-13 -15 -4 -27 -11 -27 -16 0 -5 -8 -9 -17 -9 -16 0 -110 -41 -196 -85 -16 -8
-34 -15 -40 -15 -7 0 -34 -11 -62 -24 -84 -41 -144 -66 -155 -66 -6 0 -18 -4
-28 -9 -42 -20 -89 -40 -109 -46 -18 -5 -22 -1 -28 35 -4 25 -12 40 -21 40 -8
0 -14 -6 -14 -13 0 -14 -71 -87 -84 -87 -5 0 -24 -11 -42 -25 -18 -14 -37 -25
-43 -25 -6 0 -11 -4 -11 -10 0 -5 -5 -10 -11 -10 -12 0 -180 -81 -189 -91 -3
-3 -21 -11 -40 -18 -19 -7 -49 -20 -67 -27 -17 -8 -38 -14 -47 -14 -9 0 -16
-4 -16 -9 0 -5 -14 -12 -31 -16 -17 -4 -42 -13 -57 -21 -15 -7 -47 -16 -72
-20 -25 -4 -51 -12 -59 -18 -8 -6 -65 -13 -133 -15 -65 -2 -118 -7 -118 -12 0
-5 -13 -9 -30 -9 -37 0 -69 -34 -72 -74 -3 -53 4 -141 12 -151 4 -5 11 -28 15
-50 4 -22 10 -44 15 -50 4 -5 13 -35 19 -65 7 -30 16 -64 21 -75 13 -30 21
-128 14 -164 -7 -34 -21 -40 -31 -13 -4 9 -22 30 -40 46 -18 16 -33 35 -33 41
0 12 -141 155 -153 155 -4 0 -7 -11 -7 -25 0 -14 5 -25 10 -25 6 0 10 -9 10
-21 0 -17 -4 -19 -22 -13 -45 14 -68 46 -68 94 -1 71 -32 98 -76 65 -21 -16
-64 -20 -64 -6 0 5 18 12 40 16 22 4 42 11 46 16 3 5 14 9 24 9 10 0 23 7 28
16 5 8 20 21 33 27 15 8 30 29 40 60 8 26 19 50 22 54 10 9 8 71 -2 77 -5 3
-12 22 -15 41 -4 20 -14 39 -22 42 -7 3 -14 11 -14 18 0 31 -87 26 -165 -9
-63 -29 -81 -36 -115 -44 l-35 -8 -3 -73 c-3 -69 -4 -72 -25 -65 -33 10 -57
34 -57 59 0 55 40 89 137 115 23 6 45 14 47 19 3 5 21 12 40 15 19 4 55 18 81
31 25 14 51 25 57 25 6 0 26 11 44 25 18 14 35 25 38 25 9 0 46 39 46 49 0 5
6 14 14 21 8 6 13 17 10 25 -3 7 -1 16 5 20 19 11 13 105 -10 152 -18 37 -25
43 -51 43 -16 0 -44 -6 -61 -14 -18 -8 -58 -17 -90 -21 l-59 -7 22 -23 c60
-64 -27 -184 -153 -211 -18 -3 -36 -9 -42 -13 -5 -4 -29 -13 -52 -21 -24 -7
-43 -17 -43 -22 0 -4 -9 -8 -19 -8 -11 0 -26 -7 -35 -15 -8 -8 -18 -15 -22
-15 -13 0 -94 -83 -94 -96 0 -7 -5 -14 -12 -16 -6 -2 -13 -29 -16 -60 -5 -63
15 -107 73 -160 34 -32 71 -32 117 2 15 11 33 20 40 20 7 0 22 7 32 15 11 8
30 15 42 15 12 0 36 8 53 18 29 16 31 21 31 74 0 31 5 60 11 64 6 3 27 -9 46
-29 50 -50 42 -74 -39 -115 -35 -17 -82 -36 -105 -42 -24 -6 -62 -22 -85 -35
-24 -14 -51 -27 -60 -31 -10 -3 -18 -12 -18 -19 0 -8 -11 -22 -25 -33 -13 -11
-21 -22 -18 -26 11 -10 -19 -55 -41 -62 -62 -18 -97 -39 -93 -56 4 -12 -7 -22
-37 -37 -22 -10 -61 -40 -86 -65 -24 -25 -48 -46 -52 -46 -11 0 -10 47 1 54 4
3 11 37 14 77 3 39 10 76 15 82 5 7 15 36 22 65 6 28 16 54 20 57 4 3 11 33
15 67 3 35 11 73 17 86 9 17 9 25 0 34 -7 7 -12 22 -12 33 0 27 -40 65 -68 65
-11 0 -23 4 -26 9 -3 4 -59 10 -123 13 -65 3 -127 10 -138 16 -11 6 -42 16
-70 22 -27 6 -63 17 -80 24 -16 8 -41 18 -55 24 -14 5 -46 19 -71 31 -25 11
-52 21 -58 21 -7 0 -29 9 -49 20 -20 10 -57 29 -82 41 -60 28 -131 68 -150 83
-8 6 -28 18 -43 26 -15 8 -48 35 -73 62 -25 26 -47 48 -49 48 -3 0 -5 -11 -5
-25 0 -14 -4 -25 -10 -25 -5 0 -10 -7 -10 -15 0 -19 -6 -19 -55 5 -22 11 -44
19 -50 20 -5 0 -30 10 -55 22 -25 11 -52 24 -60 28 -9 4 -30 11 -48 15 -18 3
-32 11 -32 16 0 5 -8 9 -18 9 -10 0 -34 9 -55 19 -20 10 -49 22 -64 26 -15 3
-30 10 -33 13 -7 9 -95 52 -106 52 -8 0 -195 89 -234 111 -8 5 -46 25 -85 44
-70 35 -105 55 -115 65 -3 3 -30 18 -60 34 -92 47 -118 62 -154 90 -19 14 -38
26 -42 26 -3 0 -24 16 -45 35 -22 19 -44 35 -50 35 -13 0 -149 134 -149 147 0
4 -12 22 -26 38 l-25 30 4 -159z m178 -126 c6 0 29 -14 52 -30 65 -48 117 -80
127 -80 6 0 10 -4 10 -10 0 -5 5 -10 11 -10 18 0 123 -54 132 -67 4 -7 14 -13
21 -13 15 0 75 -28 96 -45 8 -7 28 -16 45 -19 16 -4 32 -11 35 -14 7 -10 116
-62 129 -62 6 0 11 -4 11 -10 0 -5 7 -10 16 -10 15 0 65 -21 209 -90 44 -20
96 -43 115 -50 19 -7 49 -19 67 -26 17 -8 38 -14 47 -14 9 0 16 -4 16 -9 0 -5
15 -13 33 -17 17 -3 48 -15 67 -25 19 -11 43 -19 52 -19 10 0 18 -4 18 -8 0
-4 14 -13 30 -19 17 -6 30 -16 30 -23 0 -13 -60 -5 -105 15 -16 7 -51 16 -77
19 -27 4 -48 11 -48 17 0 5 -13 9 -28 9 -16 0 -37 7 -48 15 -10 8 -27 15 -36
15 -9 0 -29 5 -45 12 -35 14 -38 15 -93 28 -25 6 -58 17 -75 24 -50 23 -78 34
-118 46 -22 7 -51 18 -65 26 -15 8 -34 14 -44 14 -9 0 -18 3 -20 8 -4 9 -66
42 -80 42 -9 0 -87 38 -239 115 -10 5 -19 13 -19 17 0 5 -5 8 -11 8 -7 0 -31
16 -55 35 -23 19 -46 35 -50 35 -5 0 -34 26 -66 57 -32 31 -60 54 -63 51 -8
-8 164 -168 180 -168 8 0 20 -9 27 -19 8 -11 26 -23 41 -26 15 -4 27 -11 27
-15 0 -12 425 -220 450 -220 7 0 24 -6 38 -13 60 -31 99 -47 139 -57 23 -6 45
-15 48 -19 3 -5 23 -12 45 -16 22 -4 42 -10 45 -15 3 -4 20 -11 39 -14 20 -4
48 -13 63 -21 15 -8 36 -15 46 -15 11 0 33 -6 50 -14 18 -7 50 -17 71 -22 39
-9 67 -36 52 -51 -11 -11 -132 -8 -148 4 -7 5 -40 15 -73 22 -33 7 -64 17 -70
21 -5 5 -27 11 -48 15 -20 4 -39 11 -42 15 -3 5 -23 11 -45 15 -22 4 -40 10
-40 14 0 4 -26 14 -57 21 -32 7 -62 16 -68 20 -5 5 -27 11 -47 15 -21 4 -38
11 -38 15 0 5 -15 12 -32 16 -18 3 -42 12 -53 19 -11 7 -35 16 -52 20 -18 4
-33 10 -33 15 0 5 -13 11 -30 15 -16 4 -30 10 -30 14 0 4 -17 13 -37 20 -20 8
-55 27 -76 42 -22 16 -44 29 -50 29 -5 0 -29 16 -53 35 -23 19 -47 35 -53 35
-16 0 -228 212 -240 241 -6 13 -15 31 -19 39 -32 57 -44 90 -49 132 l-6 48 68
-65 c37 -36 71 -65 76 -65z m6169 94 c0 -24 -2 -30 -33 -92 -9 -19 -17 -38
-17 -44 0 -6 -11 -26 -25 -44 -14 -18 -25 -36 -25 -41 0 -10 -162 -173 -173
-173 -5 0 -27 -15 -50 -33 -23 -19 -50 -37 -59 -40 -10 -4 -18 -11 -18 -16 0
-5 -12 -12 -27 -16 -15 -3 -30 -10 -33 -13 -8 -11 -40 -29 -130 -72 -131 -64
-163 -78 -190 -85 -14 -4 -29 -11 -35 -15 -5 -5 -27 -11 -47 -15 -21 -4 -38
-11 -38 -15 0 -4 -26 -13 -57 -20 -32 -7 -62 -16 -68 -20 -5 -4 -25 -11 -43
-15 -18 -4 -45 -13 -60 -21 -15 -8 -37 -14 -49 -14 -13 0 -23 -4 -23 -9 0 -4
-28 -14 -62 -21 -35 -7 -68 -16 -73 -21 -6 -4 -37 -10 -70 -14 -103 -11 -133
43 -33 59 23 4 47 11 53 15 5 5 35 14 65 21 30 7 60 16 65 20 6 5 27 11 48 15
20 4 37 11 37 16 0 5 8 9 18 9 9 0 29 6 44 14 15 8 42 17 60 21 18 4 52 16 75
26 23 11 49 19 57 19 9 0 16 4 16 9 0 5 15 13 33 17 17 3 48 15 67 25 19 11
42 19 52 19 9 0 18 3 20 8 4 9 113 62 127 62 6 0 11 5 11 10 0 6 9 10 19 10
11 0 26 6 33 13 7 7 29 19 48 27 19 7 49 24 67 37 17 12 36 23 41 23 6 0 33
18 61 40 28 22 54 40 59 40 4 0 26 18 47 41 50 50 20 42 -46 -13 -26 -21 -52
-38 -58 -38 -6 0 -11 -4 -11 -9 0 -5 -12 -16 -27 -24 -105 -54 -139 -73 -143
-79 -3 -3 -18 -10 -33 -13 -15 -4 -27 -11 -27 -16 0 -5 -5 -9 -10 -9 -6 0 -32
-9 -58 -21 -26 -11 -60 -26 -77 -33 -16 -7 -46 -20 -65 -29 -19 -8 -53 -21
-75 -28 -22 -6 -44 -15 -50 -19 -5 -4 -25 -11 -42 -15 -18 -3 -33 -11 -33 -16
0 -5 -10 -9 -22 -9 -23 0 -83 -19 -103 -32 -6 -3 -28 -9 -50 -13 -22 -4 -44
-11 -50 -15 -5 -4 -26 -11 -45 -15 -19 -4 -39 -11 -45 -15 -5 -4 -37 -13 -70
-20 -33 -7 -64 -16 -70 -20 -5 -4 -27 -10 -47 -14 -51 -9 -50 13 1 37 20 9 40
17 44 17 3 0 18 5 34 12 15 6 30 12 33 13 3 1 18 7 33 13 16 7 34 12 42 12 7
0 15 3 17 8 4 9 66 42 81 42 11 0 77 28 130 55 16 8 34 15 42 15 7 0 18 7 25
15 7 8 19 15 27 15 8 0 49 16 91 36 42 20 114 54 159 75 44 22 88 39 96 39 8
0 17 6 20 14 3 7 19 16 37 19 17 4 45 18 63 31 18 13 61 38 97 55 72 35 84 41
153 89 26 17 50 32 53 32 4 0 26 16 50 35 23 19 46 35 50 35 14 0 74 63 74 78
0 7 5 10 10 7 6 -3 10 -17 10 -31z m-6112 -419 c10 -5 31 -20 49 -32 17 -13
36 -23 42 -23 6 0 11 -4 11 -9 0 -11 12 -17 217 -120 214 -106 264 -129 298
-137 17 -4 39 -13 50 -20 11 -7 37 -16 58 -19 20 -4 39 -11 42 -15 3 -5 23
-11 45 -15 22 -4 42 -10 45 -15 3 -5 24 -11 48 -15 23 -4 47 -11 52 -15 6 -5
39 -14 75 -20 36 -7 70 -16 75 -21 6 -4 35 -11 65 -15 30 -4 60 -10 65 -14 6
-4 25 -11 43 -15 17 -3 32 -11 32 -17 0 -5 9 -21 20 -35 30 -39 26 -54 -12
-46 -18 3 -37 9 -43 13 -5 5 -39 14 -75 20 -36 7 -69 16 -75 20 -5 4 -26 11
-45 15 -19 4 -39 11 -45 15 -5 4 -28 11 -50 15 -22 4 -44 10 -50 15 -5 4 -36
13 -67 20 -32 7 -58 16 -58 20 0 4 -17 11 -37 15 -21 4 -42 10 -48 15 -5 4
-23 10 -40 14 -16 4 -48 16 -72 27 -23 10 -49 19 -57 19 -9 0 -16 4 -16 9 0 5
-13 12 -30 16 -16 4 -30 11 -30 16 0 5 -8 9 -18 9 -19 0 -170 73 -212 103 -13
9 -31 17 -39 17 -39 0 43 -50 229 -140 165 -80 205 -98 243 -110 22 -7 51 -18
65 -26 15 -8 35 -14 45 -14 9 0 17 -4 17 -8 0 -5 25 -14 55 -21 49 -11 89 -26
135 -50 9 -5 31 -12 50 -16 19 -4 40 -11 45 -15 6 -3 37 -12 70 -19 33 -7 65
-17 70 -21 6 -5 27 -11 48 -15 39 -8 48 -22 20 -32 -10 -4 -21 -11 -25 -17 -5
-8 -13 -8 -26 0 -10 6 -42 15 -72 19 -30 4 -61 12 -67 17 -7 6 -13 7 -13 3 0
-4 -6 -3 -12 3 -7 5 -37 13 -65 17 -29 4 -55 11 -58 15 -3 5 -23 11 -45 15
-22 4 -42 10 -45 15 -3 4 -28 14 -56 20 -29 7 -64 19 -78 26 -14 8 -33 14 -43
14 -9 0 -18 3 -20 8 -4 9 -66 42 -81 42 -18 0 -257 121 -257 131 0 5 -5 9 -11
9 -6 0 -25 11 -43 25 -18 14 -37 25 -42 25 -5 0 -32 19 -59 43 -28 24 -58 46
-67 50 -10 3 -18 13 -18 22 0 8 -5 15 -11 15 -12 0 -79 64 -79 75 0 3 -17 27
-38 53 -36 46 -72 103 -72 117 0 4 18 -8 41 -27 22 -18 48 -37 57 -43z m6005
56 c-4 -3 -14 -17 -21 -31 -7 -14 -20 -38 -29 -55 -18 -34 -230 -245 -246
-245 -5 0 -29 -16 -53 -35 -23 -19 -46 -35 -51 -35 -5 0 -27 -13 -49 -29 -21
-15 -56 -34 -76 -42 -21 -7 -38 -16 -38 -20 0 -4 -13 -10 -30 -14 -16 -4 -30
-10 -30 -14 0 -4 -17 -13 -37 -20 -34 -11 -73 -28 -178 -76 -16 -8 -52 -20
-80 -26 -27 -7 -54 -15 -60 -20 -5 -4 -28 -10 -50 -14 -22 -4 -44 -11 -50 -15
-5 -5 -28 -11 -50 -15 -22 -4 -45 -12 -52 -17 -7 -5 -17 -7 -22 -4 -5 4 -12 2
-15 -2 -3 -5 -31 -12 -63 -16 -31 -4 -62 -11 -69 -17 -9 -7 -20 -5 -38 6 -35
23 -33 32 12 40 20 4 42 10 47 14 6 5 38 14 73 21 34 7 62 16 62 20 0 4 16 11
35 14 19 4 47 13 62 21 15 8 36 15 45 15 9 0 19 4 22 9 3 5 28 14 56 21 27 7
50 16 50 20 0 5 18 11 40 15 22 4 42 11 46 16 3 5 12 9 21 9 16 0 43 11 149
61 23 10 49 19 58 19 9 0 16 5 16 10 0 6 5 10 11 10 13 0 122 52 129 62 3 3
18 10 33 13 15 4 27 11 27 16 0 5 8 12 18 16 9 3 33 19 53 35 20 15 41 28 47
28 13 0 36 29 29 36 -3 4 -23 -7 -44 -23 -21 -16 -46 -33 -55 -36 -10 -4 -18
-11 -18 -16 0 -5 -12 -12 -27 -16 -15 -3 -30 -10 -33 -13 -7 -10 -116 -62
-129 -62 -6 0 -11 -4 -11 -10 0 -5 -7 -10 -16 -10 -15 0 -36 -8 -109 -41 -16
-7 -34 -14 -40 -15 -14 -2 -45 -13 -80 -29 -16 -8 -43 -17 -60 -21 -16 -4 -34
-10 -40 -14 -5 -4 -32 -13 -60 -19 -27 -7 -54 -16 -60 -20 -5 -5 -31 -12 -57
-15 -27 -4 -48 -11 -48 -16 0 -4 -18 -11 -40 -15 -22 -4 -42 -10 -45 -14 -2
-5 -38 -14 -80 -22 -41 -7 -75 -16 -75 -20 0 -4 -16 -9 -36 -11 -33 -4 -35 -3
-29 21 11 45 34 70 70 77 19 3 35 10 35 14 0 4 29 11 65 15 36 3 65 10 65 14
0 3 33 13 73 20 39 7 77 17 82 21 6 4 29 11 52 15 24 4 45 10 48 15 3 5 23 11
45 15 22 4 40 10 40 14 0 4 25 13 55 20 30 7 55 16 55 21 0 4 16 11 36 15 20
3 60 19 90 36 30 16 59 29 65 29 18 0 252 118 289 145 19 14 38 25 42 25 11 0
72 42 76 53 2 4 10 7 18 7 8 0 34 18 58 40 24 22 48 40 55 40 6 0 11 5 11 11
0 5 5 7 11 3 6 -3 7 -9 2 -13z m-6001 -288 c4 -10 82 -63 92 -63 4 0 22 -11
39 -24 18 -13 49 -30 70 -37 20 -7 37 -16 37 -19 0 -11 367 -190 389 -190 6 0
11 -4 11 -9 0 -5 17 -12 38 -16 20 -4 42 -10 47 -14 6 -4 30 -14 55 -21 25 -7
50 -17 55 -21 6 -4 26 -10 45 -14 19 -4 40 -11 45 -15 6 -4 28 -11 50 -15 22
-4 46 -11 52 -17 7 -6 19 -8 28 -5 8 4 17 2 20 -2 3 -5 32 -12 65 -16 33 -4
63 -11 66 -16 3 -5 15 -9 27 -9 31 0 44 -11 52 -41 6 -24 5 -25 -32 -21 -21 2
-42 8 -48 12 -5 4 -35 10 -65 14 -30 4 -59 11 -65 15 -5 5 -39 14 -75 21 -36
6 -69 15 -75 20 -5 4 -29 11 -52 15 -24 4 -45 10 -48 15 -3 5 -23 11 -45 15
-22 4 -42 11 -45 15 -3 5 -11 7 -18 4 -8 -3 -27 2 -43 11 -16 8 -37 15 -46 15
-9 0 -29 6 -45 14 -45 23 -100 46 -111 46 -12 0 -201 97 -221 113 -7 6 -21 16
-31 22 -56 33 -60 32 -20 -4 25 -23 51 -41 58 -41 6 0 12 -3 12 -7 0 -5 10
-13 23 -19 12 -6 62 -32 111 -57 48 -26 93 -47 99 -47 5 0 31 -10 56 -21 25
-12 55 -25 66 -29 11 -4 34 -14 50 -21 17 -7 35 -13 40 -14 6 0 15 -3 20 -7 6
-3 27 -9 48 -13 20 -4 39 -11 42 -15 3 -5 23 -11 45 -15 22 -4 40 -10 40 -15
0 -4 21 -10 48 -14 26 -3 59 -12 73 -20 14 -7 47 -16 73 -20 25 -4 46 -11 46
-15 0 -5 23 -11 51 -14 57 -7 64 -10 54 -27 -8 -12 -156 -4 -165 10 -3 4 -45
12 -95 19 -49 7 -94 16 -100 21 -5 4 -29 11 -52 15 -24 4 -45 10 -48 15 -3 5
-24 11 -48 15 -23 4 -46 10 -52 14 -5 4 -30 13 -55 20 -25 7 -49 17 -55 21 -5
4 -25 11 -42 15 -18 3 -33 10 -33 14 0 5 -20 14 -45 21 -24 7 -50 19 -56 26
-6 8 -19 14 -29 14 -10 0 -23 7 -30 15 -7 8 -19 15 -26 15 -8 0 -14 5 -14 10
0 6 -6 10 -13 10 -7 0 -31 15 -53 33 -21 19 -44 36 -50 38 -20 7 -106 90 -100
97 3 3 -4 10 -16 16 -20 10 -43 41 -70 96 -7 14 -16 27 -20 30 -3 3 -10 18
-13 33 -6 20 -4 27 8 27 8 0 17 -3 19 -7z m5932 -2 c6 -10 -23 -74 -36 -79 -5
-2 -8 -9 -8 -15 0 -6 -17 -31 -38 -56 -21 -25 -41 -54 -45 -64 -4 -9 -15 -20
-24 -24 -10 -3 -43 -27 -73 -53 -52 -43 -99 -75 -192 -127 -22 -12 -43 -22
-46 -21 -7 2 -80 -29 -134 -57 -15 -7 -52 -19 -82 -26 -31 -7 -56 -16 -56 -21
0 -4 -10 -8 -22 -8 -13 0 -35 -6 -49 -14 -14 -7 -48 -17 -75 -21 -27 -4 -53
-10 -59 -15 -5 -4 -44 -13 -85 -20 -41 -6 -84 -16 -95 -20 -30 -13 -132 -22
-155 -15 -35 11 -22 22 35 30 30 3 57 10 60 15 3 4 24 11 48 15 23 4 47 11 52
15 6 4 37 14 70 21 33 7 65 16 70 19 6 4 26 11 45 15 19 4 40 11 45 15 6 4 26
11 45 15 19 4 40 10 45 14 6 3 12 6 15 7 3 0 18 6 33 12 16 7 35 12 43 12 8 0
14 4 14 9 0 5 12 12 28 15 29 7 48 15 157 67 88 41 209 110 213 121 2 4 8 8
14 8 13 0 80 58 92 79 5 9 -2 6 -16 -6 -13 -13 -28 -23 -33 -23 -5 0 -18 -9
-30 -20 -24 -23 -79 -54 -195 -111 -123 -59 -142 -68 -175 -75 -16 -4 -34 -10
-40 -14 -5 -4 -26 -11 -45 -15 -19 -4 -39 -10 -45 -14 -5 -3 -12 -6 -15 -7 -3
0 -18 -6 -33 -12 -16 -7 -37 -12 -47 -12 -10 0 -21 -4 -25 -9 -3 -6 -26 -13
-50 -17 -25 -3 -48 -10 -50 -15 -3 -4 -39 -13 -80 -20 -41 -7 -75 -16 -75 -20
0 -3 -28 -10 -62 -13 -35 -4 -65 -11 -68 -15 -3 -5 -24 -10 -47 -14 -33 -4
-43 -2 -43 9 0 8 5 14 10 14 6 0 10 6 10 14 0 8 14 18 33 21 17 4 34 11 37 15
6 8 123 31 158 30 12 0 22 4 22 9 0 6 21 13 48 17 26 3 52 10 57 14 6 5 27 11
48 15 20 4 37 11 37 15 0 4 25 12 55 19 30 7 55 16 55 21 0 4 16 11 35 14 19
4 47 13 62 21 15 8 32 15 38 15 13 0 159 74 163 83 2 4 8 7 13 7 12 0 121 52
129 61 3 3 12 9 20 13 8 4 38 20 65 36 28 15 74 40 103 55 28 15 52 31 52 36
0 5 6 9 14 9 7 0 19 7 26 15 14 17 26 19 34 6z m-4496 -110 c85 -58 150 -99
169 -105 12 -4 27 -13 33 -21 7 -8 20 -15 30 -15 10 0 23 -7 30 -15 7 -8 19
-15 27 -15 17 0 127 -52 131 -62 2 -5 11 -8 20 -8 10 0 28 -6 42 -13 14 -8 48
-19 75 -26 27 -7 55 -17 61 -22 6 -4 43 -12 82 -15 64 -6 71 -9 69 -28 -2 -18
7 -22 70 -36 77 -16 123 -47 123 -83 0 -16 3 -17 15 -7 8 7 15 25 15 40 0 15
-7 33 -15 40 -8 7 -15 19 -15 26 0 8 -10 14 -22 14 -12 0 -19 3 -15 6 3 3 19
3 35 -1 24 -5 32 -13 40 -45 10 -41 2 -111 -16 -132 -5 -7 -16 -40 -23 -73 -7
-33 -16 -65 -21 -71 -5 -7 -11 -35 -15 -63 -3 -28 -10 -51 -14 -51 -5 0 -10
-59 -11 -132 -2 -82 -7 -133 -14 -135 -11 -4 -64 93 -64 118 0 8 -5 20 -10 25
-6 6 -14 43 -17 82 -3 40 -10 72 -14 72 -13 0 -11 44 1 56 6 6 12 40 13 76 2
77 -14 104 -72 114 -20 4 -40 10 -46 14 -5 5 -28 12 -50 16 -22 4 -49 13 -60
20 -11 8 -30 14 -42 14 -13 0 -31 4 -41 9 -9 6 -46 24 -82 41 -83 40 -97 48
-147 88 -22 17 -43 32 -46 32 -7 0 -157 149 -157 156 0 6 -45 60 -85 105 -31
33 -10 40 33 10z m3066 -3 c-9 -30 -27 -50 -154 -177 -117 -116 -134 -131
-144 -131 -4 0 -22 -11 -40 -25 -40 -30 -123 -75 -139 -75 -7 0 -24 -6 -39
-14 -14 -8 -45 -17 -67 -21 -23 -4 -43 -10 -46 -15 -3 -4 -21 -11 -41 -15 -20
-3 -44 -10 -53 -15 -9 -5 -28 -11 -43 -14 -15 -4 -39 -22 -54 -42 -25 -32 -26
-38 -14 -57 15 -26 17 -231 2 -250 -5 -7 -13 -29 -16 -51 -11 -57 -40 -108
-54 -94 -7 7 -12 18 -12 25 0 6 -6 16 -14 20 -9 6 -15 42 -19 121 -3 62 -10
119 -15 125 -6 7 -15 39 -22 71 -7 33 -16 67 -20 75 -4 9 -15 33 -25 53 -28
59 -25 110 9 141 16 15 38 26 50 26 19 -1 19 -2 2 -6 -11 -3 -26 -11 -33 -19
-19 -19 -28 -78 -15 -100 10 -17 12 -16 22 11 17 45 45 65 100 72 28 3 53 10
56 14 2 4 12 5 21 2 13 -5 15 -2 10 19 -7 25 -5 25 64 31 39 3 76 10 82 15 7
5 37 15 67 22 30 7 62 17 70 21 8 4 89 44 180 89 216 107 263 132 273 148 4 6
14 12 21 12 8 0 19 7 26 15 19 22 32 18 24 -7z m-2914 -277 c30 -29 69 -59 85
-67 17 -8 50 -25 75 -38 80 -41 137 -66 152 -66 18 0 68 -37 68 -51 0 -11 -43
-2 -79 17 -14 8 -33 14 -43 14 -9 0 -18 3 -20 8 -4 9 -113 62 -127 62 -6 0
-11 5 -11 10 0 6 -6 10 -13 10 -8 0 -22 9 -32 20 -10 11 -24 20 -30 20 -7 0
-15 7 -19 15 -3 8 -11 15 -18 15 -7 0 -34 21 -60 47 -26 26 -48 42 -48 36 0
-15 160 -163 176 -163 7 0 14 -4 16 -9 4 -11 91 -61 168 -96 30 -14 66 -32 80
-39 14 -8 40 -17 58 -21 17 -3 32 -11 32 -16 0 -5 13 -9 28 -9 16 0 37 -7 48
-15 10 -8 29 -15 41 -15 28 0 37 -14 19 -29 -15 -13 -82 -6 -91 9 -3 5 -23 11
-45 15 -22 4 -42 11 -45 16 -3 4 -25 13 -48 19 -46 12 -60 17 -128 49 -25 11
-53 21 -61 21 -8 0 -33 12 -54 28 -21 15 -50 33 -64 40 -52 27 -68 39 -116 87
-60 61 -81 102 -94 180 -17 105 -17 105 68 23 42 -41 102 -98 132 -127z m2934
130 c-3 -34 -10 -61 -14 -61 -4 0 -11 -17 -15 -37 -5 -28 -24 -54 -78 -108
-40 -39 -90 -80 -112 -91 -22 -11 -62 -32 -90 -46 -72 -38 -121 -58 -139 -58
-9 0 -16 -4 -16 -9 0 -5 -15 -13 -32 -16 -18 -4 -39 -12 -45 -17 -7 -6 -13 -7
-13 -3 0 4 -6 3 -12 -3 -7 -5 -29 -13 -48 -17 -19 -4 -39 -11 -45 -15 -17 -13
-66 -21 -86 -15 -25 8 -25 35 0 35 11 0 22 4 25 9 3 4 24 11 46 15 22 3 40 10
40 15 0 4 25 13 55 20 30 7 55 16 55 21 0 5 14 11 30 15 17 4 54 20 83 36 28
16 60 32 70 35 9 4 17 10 17 15 0 5 5 9 10 9 15 0 72 41 88 63 7 9 19 17 25
17 17 0 113 98 104 106 -3 4 -36 -21 -73 -55 -37 -33 -73 -61 -80 -61 -8 0
-14 -4 -14 -9 0 -8 -71 -44 -245 -126 -16 -8 -43 -17 -60 -20 l-30 -7 35 31
c19 17 42 31 50 31 9 0 24 6 35 14 11 7 31 17 45 21 43 12 110 46 110 56 0 5
7 9 15 9 8 0 30 14 48 30 19 17 39 30 43 30 5 0 56 47 114 105 57 57 106 103
108 101 2 -2 0 -31 -4 -65z m-4168 -212 c23 -10 47 -19 55 -19 8 -1 32 -9 54
-20 22 -11 48 -19 58 -20 9 0 17 -4 17 -8 0 -5 24 -14 53 -21 28 -7 61 -16 72
-21 11 -5 36 -15 55 -24 19 -8 55 -18 80 -21 25 -4 50 -11 55 -15 6 -4 42 -13
80 -20 39 -6 77 -16 86 -20 9 -5 44 -12 78 -16 34 -4 64 -11 67 -15 3 -5 15
-9 28 -9 26 0 61 -34 51 -49 -7 -13 -101 -15 -109 -3 -3 5 -67 12 -143 16 -75
4 -140 10 -143 15 -3 4 -36 11 -75 15 -38 4 -75 12 -82 18 -7 6 -24 8 -38 6
-14 -3 -28 -2 -30 2 -3 5 -23 11 -45 15 -22 4 -40 10 -40 15 0 4 -16 11 -35
14 -19 4 -47 13 -62 21 -15 8 -35 15 -44 15 -8 0 -33 13 -55 30 -42 32 -54 36
-54 20 0 -6 11 -15 25 -20 14 -5 25 -14 25 -19 0 -5 14 -12 30 -16 17 -4 30
-10 30 -14 0 -4 19 -14 43 -21 23 -8 47 -17 52 -21 6 -4 27 -10 48 -14 20 -4
39 -11 42 -15 3 -5 23 -11 45 -15 22 -4 42 -11 45 -15 3 -5 12 -7 20 -3 9 3
21 1 28 -5 6 -6 39 -13 72 -17 33 -4 65 -11 70 -16 6 -4 51 -11 100 -15 50 -3
95 -10 100 -14 6 -4 57 -10 114 -13 57 -4 106 -8 108 -10 2 -3 1 -16 -2 -30
-6 -21 -14 -25 -58 -31 -143 -17 -500 -1 -532 24 -5 4 -27 11 -49 14 -21 4
-46 11 -55 16 -52 26 -131 60 -140 60 -6 0 -11 5 -11 10 0 6 -5 10 -11 10 -7
0 -31 16 -55 35 -23 19 -46 35 -51 35 -12 0 -142 132 -159 161 -7 13 -19 35
-26 49 -7 14 -15 27 -18 30 -16 14 -50 80 -50 97 0 18 14 14 123 -39 67 -33
140 -68 163 -79z m5494 136 c0 -3 -19 -42 -42 -87 -34 -64 -67 -106 -154 -195
-61 -62 -118 -113 -127 -113 -10 0 -17 -4 -17 -10 0 -11 -161 -90 -184 -90 -9
0 -16 -4 -16 -9 0 -5 -17 -12 -37 -16 -21 -4 -42 -10 -48 -15 -23 -18 -229
-32 -403 -28 -186 4 -212 10 -212 48 0 14 13 18 68 23 37 4 88 7 115 7 26 0
47 4 47 9 0 5 45 12 100 16 55 4 100 11 100 15 0 4 30 11 68 15 37 4 73 12 79
17 7 6 19 8 28 5 8 -4 17 -2 20 3 3 5 26 12 50 16 25 3 48 10 51 15 3 5 12 9
21 9 8 0 29 6 46 14 104 46 147 67 147 72 0 10 -63 -8 -100 -27 -19 -11 -45
-19 -57 -19 -12 0 -24 -4 -28 -9 -3 -6 -26 -13 -50 -17 -25 -3 -48 -10 -50
-15 -3 -4 -12 -6 -20 -2 -9 3 -21 1 -28 -5 -7 -6 -48 -14 -92 -18 -44 -4 -82
-11 -86 -15 -3 -5 -64 -12 -137 -15 -73 -4 -132 -11 -132 -16 0 -4 -25 -8 -55
-8 -30 0 -55 2 -55 4 0 3 4 16 10 30 7 20 16 26 40 26 16 0 30 4 30 9 0 5 30
12 68 16 37 4 72 11 77 15 6 4 44 13 85 20 41 7 80 16 85 20 6 4 29 11 52 15
24 4 45 10 48 15 3 4 25 11 50 14 24 4 47 11 50 15 2 5 22 12 42 16 21 3 47
12 58 19 11 8 35 17 53 20 17 4 52 18 77 32 25 13 45 22 45 19 0 -2 26 10 58
26 31 16 65 29 75 29 9 0 17 5 17 10 0 6 5 10 11 10 14 0 123 53 127 63 4 8
32 10 32 2z m-3510 -105 c0 -5 -22 -10 -50 -10 -27 0 -50 5 -50 10 0 6 23 10
50 10 28 0 50 -4 50 -10z m1310 0 c0 -5 -21 -10 -46 -10 -27 0 -43 4 -39 10 3
6 24 10 46 10 21 0 39 -4 39 -10z m894 -148 c-39 -75 -125 -152 -214 -192 -14
-7 -38 -18 -54 -26 -16 -8 -50 -17 -75 -21 -25 -3 -51 -10 -57 -14 -29 -23
-294 -22 -294 1 0 5 26 11 58 15 31 3 66 10 77 15 11 5 44 12 72 15 29 4 55
11 58 15 3 4 29 11 58 15 28 4 63 13 77 20 14 7 60 29 103 50 77 37 143 86
131 97 -3 4 -18 -6 -32 -20 -30 -30 -76 -54 -137 -73 -22 -6 -44 -15 -50 -19
-5 -4 -35 -11 -65 -15 -30 -4 -60 -11 -66 -16 -5 -4 -47 -11 -92 -15 -45 -4
-82 -11 -82 -15 0 -5 -9 -9 -20 -9 -11 0 -20 5 -20 10 0 6 9 10 19 10 11 0 22
4 25 9 3 5 28 14 56 21 28 7 52 16 55 20 3 5 23 11 45 15 22 4 40 11 40 15 0
5 25 14 55 21 30 7 55 16 55 20 0 4 14 10 30 14 17 4 30 11 30 16 0 5 7 9 16
9 15 0 86 28 137 55 16 8 34 15 42 15 7 0 19 7 26 17 28 33 23 -18 -7 -75z
m-3115 37 c22 -10 44 -19 50 -19 5 0 22 -6 38 -14 89 -44 144 -67 191 -77 28
-7 52 -16 52 -20 0 -4 15 -11 33 -14 17 -4 37 -11 42 -15 6 -4 26 -11 45 -15
19 -4 45 -13 57 -21 12 -8 30 -14 40 -14 13 0 14 -3 5 -12 -9 -9 -17 -9 -34 0
-13 6 -60 14 -105 17 -46 4 -83 11 -83 15 0 4 -24 11 -52 14 -29 4 -58 12 -64
17 -7 5 -16 9 -20 8 -21 -5 -107 36 -156 73 -20 16 -39 25 -42 20 -5 -8 28
-42 41 -42 3 0 21 -11 39 -25 18 -14 37 -25 42 -25 5 0 23 -7 38 -15 16 -8 37
-15 46 -15 9 0 20 -5 23 -10 4 -6 10 -8 15 -5 5 3 11 1 15 -5 3 -5 28 -12 55
-16 28 -4 50 -10 50 -14 0 -5 30 -12 68 -15 37 -4 72 -11 77 -15 6 -5 36 -11
68 -15 31 -4 57 -11 57 -15 0 -23 -287 -23 -315 0 -5 4 -27 11 -48 15 -20 4
-54 16 -74 26 -21 11 -44 19 -51 19 -8 0 -31 14 -52 30 -21 17 -41 30 -45 30
-10 0 -77 69 -92 95 -19 33 -53 98 -53 103 0 7 60 -10 99 -29z m-56 -216 c9
-3 17 -9 17 -13 0 -5 15 -12 33 -15 17 -4 37 -11 42 -15 6 -4 32 -13 60 -19
27 -7 55 -17 61 -22 6 -5 33 -12 60 -15 27 -4 54 -11 60 -15 6 -5 51 -12 100
-15 49 -4 94 -11 100 -16 6 -4 18 -6 27 -2 8 3 18 1 22 -5 4 -7 -8 -11 -34
-11 -22 0 -43 -4 -46 -10 -8 -12 -222 -14 -229 -1 -3 4 -22 11 -42 14 -38 6
-120 43 -130 58 -3 5 -10 9 -16 9 -28 0 46 -57 89 -69 26 -8 54 -18 61 -24 7
-5 44 -12 82 -15 39 -2 73 -9 76 -13 7 -12 81 -12 88 -1 3 5 49 12 102 15 54
4 100 11 103 15 6 9 71 25 71 18 0 -16 -15 -36 -26 -36 -8 0 -22 -4 -32 -9
-68 -33 -95 -41 -155 -47 -37 -4 -70 -11 -73 -15 -7 -12 -120 -11 -142 0 -9 6
-38 13 -64 16 -27 3 -48 10 -48 14 0 5 -15 12 -33 15 -18 3 -55 25 -82 49 -28
24 -58 46 -67 50 -10 3 -18 11 -18 17 0 6 -13 28 -29 48 -16 20 -32 48 -36 61
-6 21 -5 23 11 16 11 -4 27 -10 37 -12z m3215 10 c-2 -5 -12 -24 -21 -44 -18
-40 -134 -159 -155 -159 -7 0 -15 -7 -18 -15 -3 -8 -21 -17 -40 -21 -19 -3
-37 -10 -40 -15 -2 -5 -27 -11 -55 -15 -27 -4 -52 -11 -55 -15 -7 -12 -131
-12 -138 0 -3 4 -35 11 -71 13 -36 3 -71 10 -78 16 -6 5 -29 12 -49 16 -21 4
-38 10 -38 14 0 4 -10 12 -22 17 -33 15 -34 33 -1 27 15 -2 33 -9 39 -13 6 -5
52 -12 103 -16 50 -3 94 -10 97 -15 7 -11 91 -11 98 1 3 4 36 10 73 13 38 3
77 10 88 16 11 6 50 24 87 41 56 26 93 51 74 51 -10 0 -101 -45 -107 -53 -3
-4 -29 -10 -58 -14 -28 -3 -54 -10 -57 -14 -7 -13 -201 -11 -209 1 -3 6 -22
10 -42 10 -20 0 -33 3 -29 8 4 4 11 7 14 8 4 0 14 3 22 7 8 3 55 8 104 11 49
4 94 10 100 15 6 4 31 11 56 15 24 4 49 11 55 15 5 5 35 14 65 21 30 7 62 16
70 20 131 64 147 69 138 53z m-4258 -52 c0 -5 15 -12 33 -15 17 -3 44 -12 58
-20 14 -7 47 -16 73 -20 25 -4 46 -11 46 -15 0 -5 25 -12 55 -16 30 -3 57 -10
60 -14 2 -5 54 -14 115 -21 60 -7 110 -16 110 -20 0 -4 45 -11 100 -15 55 -4
100 -11 100 -15 0 -4 37 -10 83 -14 45 -3 92 -9 105 -12 41 -12 22 -24 -37
-24 -33 0 -63 -4 -66 -10 -8 -12 -272 -14 -279 -2 -3 5 -49 12 -102 15 -54 4
-100 11 -103 15 -3 5 -24 12 -47 15 -22 4 -53 13 -70 21 -16 8 -40 17 -54 21
l-25 6 25 -20 c14 -12 43 -26 65 -32 22 -6 45 -15 50 -19 6 -4 30 -11 55 -15
25 -4 50 -11 56 -16 6 -5 59 -12 118 -16 59 -3 109 -10 112 -15 8 -13 341 -10
350 3 4 7 10 7 16 1 18 -18 -20 -44 -70 -50 -26 -2 -52 -9 -59 -14 -7 -5 -34
-8 -60 -7 -27 1 -54 -1 -61 -5 -15 -9 -251 4 -257 15 -3 4 -30 11 -60 14 -30
4 -55 11 -55 15 0 5 -14 12 -32 15 -18 4 -41 12 -53 18 -11 5 -29 15 -40 20
-11 6 -32 17 -47 25 -16 7 -28 18 -28 23 0 5 -6 9 -14 9 -8 0 -24 12 -35 26
-12 15 -21 23 -21 19 0 -14 -99 99 -100 113 0 7 -7 15 -15 18 -17 7 -20 24 -5
24 6 0 10 -4 10 -9z m5255 -13 c-4 -13 -20 -35 -36 -50 -16 -15 -29 -32 -29
-37 0 -6 -4 -11 -9 -11 -5 0 -25 -15 -43 -32 -60 -57 -154 -118 -183 -118 -8
0 -15 -4 -15 -10 0 -5 -7 -10 -16 -10 -9 0 -30 -6 -47 -14 -18 -8 -54 -20 -82
-26 -71 -17 -271 -34 -292 -25 -10 4 -46 6 -80 5 -34 -1 -64 3 -68 9 -3 6 -22
11 -42 11 -39 0 -73 23 -73 49 0 12 3 12 12 3 14 -14 363 -17 372 -3 3 4 49
11 103 15 53 4 102 11 107 15 6 5 34 12 61 17 28 4 59 13 70 19 11 7 35 16 53
20 17 4 32 11 32 16 0 5 6 9 13 9 6 1 26 12 42 26 29 25 29 25 5 19 -14 -4
-32 -14 -41 -21 -8 -8 -22 -14 -30 -14 -8 0 -24 -6 -35 -14 -11 -8 -38 -18
-60 -21 -21 -4 -45 -12 -52 -18 -6 -5 -53 -12 -102 -15 -50 -2 -93 -9 -96 -13
-7 -13 -271 -11 -279 1 -3 6 -36 10 -72 10 -55 0 -64 2 -54 14 8 9 43 17 99
21 48 3 96 10 107 15 11 5 56 12 99 15 44 4 87 11 95 15 9 5 59 13 111 20 52
6 99 15 105 19 5 5 36 12 67 15 32 4 60 11 63 16 3 4 24 11 48 15 23 4 47 10
52 14 6 4 29 13 52 20 23 6 45 16 48 21 12 19 26 10 20 -12z m-2568 -10 c18
-7 33 -16 33 -21 0 -5 13 -26 28 -46 31 -38 44 -66 36 -74 -3 -3 -24 5 -47 17
-79 42 -127 41 -77 -1 33 -28 23 -35 -20 -13 -39 20 -40 20 -40 1 0 -11 25
-47 55 -79 50 -55 74 -90 42 -64 -7 6 -32 14 -55 18 -54 8 -54 -4 -2 -66 39
-47 53 -73 27 -52 -7 6 -32 14 -55 18 -23 4 -45 11 -48 15 -6 11 -104 12 -104
2 0 -4 37 -45 82 -90 45 -45 79 -85 75 -89 -4 -4 -15 0 -25 9 -10 10 -23 17
-28 17 -6 0 -36 23 -67 51 -36 32 -57 45 -57 35 0 -21 38 -96 63 -123 11 -13
18 -26 15 -29 -7 -6 -115 43 -123 57 -4 5 -10 9 -15 9 -11 0 -1 -32 12 -41 5
-3 -3 -14 -17 -23 -25 -16 -27 -16 -45 6 l-19 23 -1 -67 c0 -36 -3 -73 -6 -82
-3 -9 -1 -16 6 -16 6 0 33 -18 59 -40 26 -22 52 -40 58 -40 6 0 13 -7 17 -15
3 -8 12 -15 21 -15 8 0 15 -7 15 -15 0 -8 -6 -15 -14 -15 -19 0 -112 -74 -126
-101 -13 -23 -4 -42 9 -20 5 7 24 13 42 14 33 2 34 1 39 -43 l5 -45 27 35 c14
19 28 46 30 60 2 18 10 26 28 28 14 2 29 8 34 13 13 11 63 12 70 0 3 -4 31
-11 62 -14 65 -7 68 -9 59 -36 -8 -26 -22 -27 -28 -3 -2 9 -7 -9 -11 -40 -5
-31 -7 -61 -5 -67 7 -19 60 58 62 89 2 26 5 28 27 23 14 -3 30 -10 36 -14 6
-5 96 -10 199 -11 179 -3 190 -4 200 -23 5 -11 20 -34 32 -51 12 -16 24 -46
28 -67 7 -36 7 -37 -24 -37 -29 0 -31 2 -32 38 0 20 -4 45 -7 55 -7 16 -10 15
-30 -8 l-23 -27 26 -34 c30 -40 30 -39 -7 -48 -26 -6 -28 -4 -28 28 0 41 -15
86 -30 86 -5 0 -10 -10 -10 -21 0 -18 -2 -19 -15 -9 -8 7 -15 8 -15 2 0 -5 7
-15 15 -22 8 -7 15 -17 15 -23 0 -6 8 -19 17 -29 17 -19 16 -20 -7 -39 -14
-10 -31 -19 -37 -19 -7 0 -13 -4 -13 -10 0 -5 -7 -10 -16 -10 -8 0 -13 -4 -10
-9 3 -4 27 -6 54 -3 36 3 51 0 61 -12 26 -31 0 -38 -118 -34 -61 1 -111 1
-111 -1 0 -2 11 -16 25 -33 14 -16 25 -34 25 -38 0 -13 -133 1 -142 14 -10 16
-629 15 -649 0 -8 -6 -47 -15 -88 -18 -40 -4 -80 -10 -90 -13 -9 -3 2 13 24
36 21 22 44 41 51 41 7 0 14 6 17 14 7 17 -32 26 -114 26 -62 0 -72 9 -44 40
8 9 17 32 20 51 3 19 3 28 -1 22 -7 -16 -31 -17 -36 -1 -10 29 -28 -8 -29 -60
-1 -31 -4 -47 -6 -34 -7 34 -63 72 -108 72 -37 0 -37 0 -31 32 7 36 44 95 64
103 7 3 12 -4 12 -18 0 -19 4 -17 35 18 19 22 34 51 35 65 0 19 -3 21 -12 12
-40 -40 -37 31 3 87 26 35 33 57 42 127 6 46 13 84 17 84 4 0 11 29 15 65 3
36 10 65 15 65 4 0 11 15 14 33 3 18 15 51 26 72 11 22 20 45 20 52 0 7 5 13
11 13 8 0 10 -25 7 -80 -5 -81 3 -96 26 -54 6 10 21 32 34 47 12 16 22 42 22
58 l0 29 -21 -21 -20 -20 -21 26 c-21 27 -21 31 14 90 21 37 28 50 37 70 5 11
20 28 33 38 13 9 43 33 66 52 24 19 48 35 54 35 5 0 21 9 35 20 14 11 34 20
43 20 10 0 20 7 24 15 4 11 20 15 57 15 45 0 50 -2 39 -15 -7 -8 -19 -15 -27
-15 -8 0 -13 -6 -11 -12 7 -20 142 -23 158 -3 10 12 10 15 -4 15 -10 0 -14 5
-11 10 3 6 17 10 31 10 28 0 30 7 7 32 -15 17 -15 18 2 18 10 0 34 -5 52 -12z
m129 -33 c23 -19 46 -35 50 -35 3 0 29 -22 56 -50 55 -56 84 -66 74 -25 -4 14
-2 25 3 25 12 0 161 -164 161 -177 0 -5 16 -28 35 -50 19 -23 35 -46 35 -51 0
-5 7 -15 15 -22 13 -11 15 -6 15 34 0 25 3 46 6 46 3 0 17 -13 31 -30 13 -16
29 -30 35 -30 5 0 24 -11 42 -25 18 -14 37 -25 41 -25 16 0 75 -51 75 -65 0
-15 -53 -45 -82 -45 -10 0 -18 4 -18 9 0 5 -17 12 -37 16 -21 4 -45 12 -53 19
-20 17 -50 27 -50 17 0 -4 9 -16 20 -26 11 -10 20 -24 20 -32 0 -7 11 -18 24
-23 33 -12 42 -30 17 -30 -29 0 -26 -24 5 -45 23 -15 25 -22 22 -66 -1 -27 0
-49 5 -49 4 0 11 0 16 0 5 0 12 14 16 30 4 17 11 30 16 30 5 0 9 5 9 11 0 6
11 25 25 43 14 18 25 37 25 42 0 5 13 15 29 22 23 10 33 10 57 -3 16 -8 42
-15 57 -15 24 0 27 -3 22 -20 -5 -14 -2 -20 10 -20 8 0 27 -7 40 -16 28 -18
45 -12 45 17 0 24 11 24 43 -1 17 -13 24 -27 21 -38 -5 -14 -4 -14 4 -3 9 12
13 9 22 -15 7 -16 16 -37 21 -46 11 -22 12 -58 1 -58 -5 0 -18 11 -30 25 -18
21 -31 25 -77 25 -35 0 -71 -7 -97 -20 -26 -12 -74 -22 -130 -26 l-89 -7 7
-31 c3 -17 10 -33 14 -36 4 -3 11 -16 15 -29 4 -13 21 -37 37 -53 17 -16 28
-31 25 -34 -2 -2 -10 2 -17 11 -7 8 -19 15 -27 15 -7 0 -16 6 -19 14 -3 8 -22
26 -42 39 -42 29 -80 27 -108 -4 -20 -23 -72 -25 -80 -4 -7 17 -99 22 -109 5
-10 -17 -268 -13 -301 5 -16 8 -36 15 -46 15 -9 0 -18 5 -20 11 -2 6 -33 13
-68 16 -36 3 -70 10 -77 15 -7 5 -14 5 -18 -2 -3 -5 -20 -10 -36 -10 -42 0
-27 17 21 25 51 9 53 32 3 41 -53 10 -133 55 -133 75 0 13 74 11 86 -1 6 -6
43 -10 85 -8 58 2 74 6 74 18 0 10 -12 16 -32 18 -18 2 -33 7 -33 11 0 4 -18
14 -40 21 -40 13 -78 45 -67 56 3 4 14 3 24 0 10 -4 18 -6 19 -4 0 2 7 -2 15
-8 8 -7 38 -15 68 -19 65 -9 67 9 4 40 -46 23 -73 43 -73 56 0 5 30 -7 68 -26
37 -19 70 -35 75 -35 14 0 7 38 -13 63 -11 14 -20 29 -20 33 0 5 -24 33 -52
62 l-53 54 40 -7 c22 -3 44 -11 50 -16 5 -5 16 -9 25 -9 9 0 34 -9 55 -20 55
-28 77 -18 42 18 -15 16 -27 33 -27 38 0 6 -16 24 -35 41 -20 18 -31 34 -25
38 5 3 10 2 10 -4 0 -5 15 -13 33 -16 17 -4 37 -10 42 -14 6 -3 12 -6 15 -7 3
0 13 -4 23 -9 10 -4 21 -5 24 -1 8 7 -84 92 -109 101 -21 8 -32 35 -13 35 7 0
17 -5 21 -11 3 -6 22 -17 40 -25 19 -8 34 -19 34 -24 0 -6 7 -10 15 -10 8 0
15 5 15 10 0 18 -32 60 -45 60 -7 0 -15 9 -18 21 -4 16 -2 19 11 14 9 -4 25
-10 35 -12 9 -3 17 -9 17 -14 0 -12 47 -12 54 0 3 5 -1 14 -9 21 -8 7 -15 17
-15 23 0 5 -16 29 -35 53 -19 23 -35 47 -35 53 0 6 -3 11 -7 11 -5 0 -16 14
-25 30 -22 39 -15 38 38 -5z m-1681 -171 c17 -4 36 -11 42 -17 7 -5 42 -12 78
-15 36 -2 65 -9 65 -13 0 -5 34 -9 75 -9 43 0 75 4 75 10 0 6 20 10 45 10 25
0 45 -4 45 -9 0 -13 -176 -24 -289 -19 -68 4 -89 2 -71 -4 14 -6 33 -14 42
-19 10 -5 88 -9 173 -9 85 0 155 -4 155 -8 0 -27 -304 -43 -363 -19 -39 17
-117 90 -117 110 0 9 -6 18 -12 21 -13 6 -6 5 57 -10z m3035 1 c0 -9 -7 -18
-15 -21 -8 -4 -15 -10 -15 -15 0 -16 -32 -44 -81 -73 -41 -23 -56 -26 -144
-26 -102 0 -223 16 -239 31 -6 5 59 9 155 9 91 0 169 3 173 8 4 4 21 12 37 17
22 8 -8 10 -118 9 -82 0 -117 1 -78 3 38 2 74 8 80 12 5 5 40 12 78 16 37 3
67 11 67 16 0 5 12 9 28 9 15 0 34 5 42 10 21 14 30 12 30 -5z m-2552 -32
c-10 -2 -26 -2 -35 0 -10 3 -2 5 17 5 19 0 27 -2 18 -5z m2045 0 c-7 -2 -21
-2 -30 0 -10 3 -4 5 12 5 17 0 24 -2 18 -5z m97 -13 c0 -5 -16 -10 -35 -10
-19 0 -35 5 -35 10 0 6 16 10 35 10 19 0 35 -4 35 -10z m-2145 -40 c3 -5 -1
-10 -9 -10 -9 0 -16 5 -16 10 0 6 4 10 9 10 6 0 13 -4 16 -10z m2045 0 c0 -5
-7 -10 -16 -10 -8 0 -12 5 -9 10 3 6 10 10 16 10 5 0 9 -4 9 -10z m-3374 -59
c10 -11 188 -31 275 -31 33 0 59 -4 59 -10 0 -6 46 -10 119 -10 69 0 122 4
126 10 8 12 125 13 125 1 0 -5 -24 -12 -52 -16 -29 -4 -56 -13 -60 -19 -11
-17 -380 -15 -385 2 -5 14 -33 17 -33 3 0 -8 49 -32 72 -35 3 -1 10 -4 14 -8
10 -11 342 -10 348 1 3 4 31 11 63 14 32 4 68 10 81 13 15 4 22 2 22 -7 -1
-20 -69 -49 -145 -62 -36 -6 -65 -14 -65 -18 0 -4 -32 -11 -70 -15 -39 -4 -73
-11 -76 -15 -7 -12 -50 -11 -72 0 -9 6 -38 13 -64 16 -27 3 -48 10 -48 16 0 5
-7 9 -15 9 -8 0 -23 4 -33 9 -9 5 -24 12 -32 15 -23 9 -58 32 -106 71 -18 14
-35 25 -38 25 -7 0 -46 38 -46 45 0 9 26 5 36 -4z m4704 -1 c0 -6 -8 -14 -17
-17 -10 -4 -28 -20 -41 -35 -13 -15 -28 -28 -34 -28 -6 0 -27 -13 -47 -29 -20
-15 -54 -34 -76 -42 -22 -7 -45 -17 -51 -21 -7 -5 -35 -11 -63 -15 -28 -3 -51
-10 -51 -14 0 -12 -77 -12 -84 0 -3 4 -33 11 -65 15 -33 4 -63 11 -66 16 -3 4
-29 11 -58 15 -28 4 -65 13 -81 21 -16 8 -35 14 -41 14 -13 0 -41 28 -34 34 6
7 177 -18 185 -26 11 -12 312 -10 319 2 3 6 16 10 28 10 12 0 27 4 34 8 6 4
-73 7 -176 7 -128 0 -192 4 -202 12 -8 6 -35 14 -61 18 -27 4 -48 11 -48 16 0
12 117 11 125 -1 4 -6 55 -10 120 -10 65 0 116 4 120 10 3 6 35 10 71 10 83 0
256 20 269 31 12 12 25 11 25 -1z m-3438 -26 c-11 -8 -31 -18 -44 -24 -12 -5
-30 -14 -38 -19 -42 -23 -90 -41 -135 -50 l-50 -10 68 3 c38 2 74 9 80 15 6 6
19 11 29 11 11 0 38 9 60 20 23 11 47 20 54 20 6 0 22 8 35 18 42 32 67 35 29
3 -19 -16 -38 -27 -42 -25 -5 3 -8 1 -8 -3 0 -5 -17 -17 -37 -28 -20 -11 -41
-25 -47 -30 -6 -6 -22 -16 -36 -23 -14 -7 -36 -20 -50 -28 -18 -11 -46 -14
-100 -11 -72 3 -77 5 -118 44 -23 22 -42 45 -42 51 0 7 16 12 39 12 22 0 42 4
45 9 3 5 41 12 83 16 43 4 83 10 88 15 6 4 36 11 67 14 32 4 60 12 64 17 3 5
10 7 15 3 6 -3 2 -12 -9 -20z m2216 0 c34 -3 62 -10 62 -14 0 -4 41 -11 90
-15 50 -4 93 -11 96 -16 3 -5 21 -9 40 -9 19 0 34 -4 34 -8 0 -4 -20 -27 -44
-51 -43 -43 -47 -44 -120 -49 -62 -4 -80 -1 -103 14 -40 26 -85 52 -105 60
-10 3 -18 10 -18 15 0 5 -5 9 -11 9 -6 0 -25 11 -43 25 -18 14 -36 25 -40 25
-4 0 -14 7 -22 15 -9 8 -12 15 -7 15 7 0 99 -43 206 -96 16 -8 61 -16 100 -19
l72 -4 -50 12 c-27 7 -54 15 -60 18 -5 4 -25 10 -42 14 -18 3 -33 11 -33 15 0
5 -22 19 -49 32 -27 12 -47 26 -44 31 2 4 10 4 16 -2 7 -5 40 -13 75 -17z
m-2036 -4 c-4 -11 -31 -47 -60 -79 -28 -33 -52 -62 -52 -66 0 -9 -66 -75 -74
-75 -5 0 -28 -18 -53 -40 -25 -22 -52 -40 -59 -40 -8 0 -14 -4 -14 -10 0 -5 4
-10 8 -10 17 0 72 32 72 41 0 5 5 9 11 9 17 0 62 38 155 129 46 46 87 82 89
79 3 -3 -4 -13 -15 -23 -11 -10 -20 -23 -20 -28 0 -6 -17 -31 -38 -56 -21 -25
-45 -57 -52 -71 -17 -35 -71 -90 -87 -90 -7 0 -13 -4 -13 -9 0 -19 -67 -43
-132 -48 -57 -5 -69 -3 -74 11 -10 27 15 106 41 130 14 13 25 28 25 34 0 5 17
13 37 17 20 4 48 15 61 26 14 10 29 19 34 19 6 0 36 23 68 50 32 28 60 50 64
50 3 0 21 16 40 35 40 40 48 43 38 15z m1827 -21 c25 -22 61 -53 79 -70 18
-16 36 -29 39 -29 4 0 14 -6 22 -14 24 -21 90 -56 106 -56 27 0 77 -54 107
-117 16 -35 28 -66 26 -69 -3 -2 -18 -7 -35 -10 -30 -6 -30 -5 -36 42 -3 28
-11 51 -21 56 -9 5 -16 16 -16 23 0 8 -7 15 -15 15 -8 0 -15 5 -15 10 0 14
-50 35 -112 47 -16 3 -28 9 -28 15 0 5 -20 28 -45 52 -25 25 -45 49 -45 54 0
5 -7 15 -15 22 -21 18 -58 70 -49 70 4 0 28 -18 53 -41z m-1674 -48 c3 -5 1
-12 -4 -15 -4 -3 -11 -28 -15 -56 -4 -27 -11 -50 -16 -50 -4 0 -11 -13 -15
-30 -4 -16 -17 -49 -31 -72 -13 -24 -29 -54 -36 -68 -7 -14 -18 -29 -25 -33
-7 -4 -13 -14 -13 -21 0 -39 -129 -116 -194 -116 -60 0 -70 15 -35 53 95 105
169 193 169 200 0 5 16 28 35 51 19 24 35 47 35 52 0 5 9 18 21 27 20 18 21
18 15 0 -3 -10 -8 -30 -12 -45 -3 -16 -10 -28 -15 -28 -5 0 -9 -7 -9 -17 0
-22 -48 -124 -69 -145 -9 -9 -32 -33 -51 -52 -19 -20 -29 -36 -23 -36 6 0 18
6 25 13 7 7 21 16 31 20 9 4 20 15 24 24 4 10 17 28 29 40 13 12 26 33 30 47
3 14 10 26 14 26 10 0 46 74 55 113 4 15 11 27 15 27 5 0 12 15 15 33 13 57
34 83 50 58z m49 -58 c-4 -21 -10 -42 -14 -48 -4 -5 -13 -50 -20 -100 -7 -49
-17 -94 -21 -99 -5 -6 -9 -25 -9 -43 0 -17 -6 -36 -12 -40 -16 -10 -34 -37
-54 -83 -9 -19 -32 -52 -52 -74 -24 -25 -33 -40 -24 -43 6 -3 12 -10 12 -17 0
-23 -34 -43 -82 -48 -40 -5 -45 -3 -38 11 4 9 20 41 35 71 34 72 51 101 62
109 16 12 110 196 148 291 23 59 67 150 72 150 2 0 1 -17 -3 -37z m1682 -60
c-8 -9 -56 10 -56 22 0 7 -7 18 -15 25 -8 7 -15 20 -15 28 0 11 16 1 45 -28
24 -24 43 -45 41 -47z m-2516 33 c0 -7 -186 -95 -215 -101 -16 -4 -39 -11 -50
-16 -11 -5 -42 -10 -70 -12 -30 -2 -15 -4 38 -5 48 -1 87 2 87 7 0 4 21 11 46
15 26 3 53 11 60 17 8 6 14 9 14 6 0 -3 35 12 77 33 106 54 117 39 33 -45 -35
-36 -70 -65 -78 -65 -7 0 -15 -6 -18 -14 -3 -8 -23 -17 -45 -21 -21 -4 -41
-11 -45 -16 -7 -11 -101 -12 -108 0 -3 4 -25 11 -49 13 -24 3 -84 25 -133 49
-86 42 -88 44 -54 47 19 2 40 8 47 14 7 5 17 7 23 3 6 -4 16 -2 23 3 7 5 38
13 69 16 32 4 60 11 63 15 2 5 28 11 57 15 28 4 57 10 62 14 24 16 166 40 166
28z m3133 -7 c40 -6 77 -15 82 -19 6 -5 31 -11 58 -15 26 -4 50 -11 52 -15 3
-5 31 -12 63 -16 31 -3 63 -11 69 -16 7 -6 19 -8 28 -5 8 4 17 2 20 -3 4 -6
22 -10 41 -10 46 0 43 -14 -6 -30 -22 -7 -40 -17 -40 -21 0 -4 -13 -10 -30
-14 -16 -4 -30 -11 -30 -15 0 -5 -23 -12 -50 -16 -28 -4 -53 -11 -56 -15 -7
-12 -111 -12 -118 0 -3 5 -22 12 -41 15 -19 4 -35 11 -35 15 0 5 -10 11 -22
15 -29 7 -152 131 -144 144 5 9 31 -1 96 -37 47 -25 62 -31 70 -26 5 3 11 1
15 -4 3 -6 26 -13 50 -17 25 -3 48 -10 51 -15 3 -5 47 -8 97 -7 71 1 78 3 32
5 -32 2 -64 8 -70 13 -6 5 -31 12 -55 16 -25 4 -47 10 -50 13 -8 9 -117 61
-129 61 -6 0 -11 4 -11 9 0 5 -8 12 -17 14 -35 9 9 7 80 -4z m-1798 -67 c11
-17 25 -31 31 -32 6 0 19 -9 29 -20 10 -11 24 -20 32 -20 7 0 13 -4 13 -10 0
-5 -6 -10 -14 -10 -8 0 -18 5 -21 10 -3 6 -42 10 -86 10 -62 0 -79 3 -79 14 0
8 5 18 11 22 6 3 18 22 25 41 17 40 31 39 59 -5z m-1236 -89 c-63 -63 -168
-126 -229 -136 -14 -2 -4 -5 22 -6 26 0 49 3 52 8 5 7 47 19 86 25 3 1 19 13
35 29 16 15 34 27 39 27 5 0 20 10 33 22 13 12 23 16 23 10 0 -21 -42 -92 -55
-92 -7 0 -18 -7 -25 -15 -7 -8 -20 -15 -29 -15 -9 0 -29 -7 -45 -15 -31 -16
-151 -21 -160 -6 -3 4 -19 11 -36 14 -43 9 -37 24 14 31 24 4 50 14 56 21 7 8
20 15 29 15 9 0 39 23 66 50 27 28 55 50 62 50 8 0 16 7 20 16 6 16 50 39 70
35 6 -1 15 4 19 11 6 9 9 9 12 -1 2 -7 -24 -42 -59 -78z m2852 57 c9 0 24 -9
34 -20 10 -11 22 -20 26 -20 5 0 29 -20 53 -45 25 -25 49 -45 54 -45 5 0 21
-9 35 -20 14 -11 46 -23 71 -26 53 -8 59 -19 16 -29 -16 -4 -32 -11 -35 -16
-8 -12 -120 -12 -143 0 -9 5 -37 15 -62 22 -25 7 -53 20 -63 28 -22 18 -57 87
-49 95 3 3 24 -9 46 -27 23 -19 64 -44 91 -56 28 -12 58 -27 67 -32 10 -5 39
-8 65 -8 32 1 38 3 18 6 -29 4 -65 17 -95 34 -8 5 -26 15 -40 22 -13 6 -36 24
-51 40 -14 15 -31 27 -38 27 -6 0 -11 6 -11 13 0 6 -14 25 -30 41 -33 32 -31
55 3 31 12 -8 29 -15 38 -15z m-321 -205 c37 -38 42 -47 30 -56 -25 -17 -127
-2 -160 23 -43 31 -38 42 16 34 30 -4 43 -2 39 5 -7 10 11 39 24 39 4 0 27
-20 51 -45z m-2360 18 c0 -10 -75 -73 -87 -73 -11 -1 -70 -50 -59 -50 9 0 61
23 143 64 23 11 44 18 47 15 8 -7 -17 -59 -27 -59 -5 0 -23 -10 -39 -22 -40
-28 -176 -39 -196 -15 -11 12 -6 21 26 53 21 22 56 48 78 58 21 10 46 23 54
27 19 10 60 11 60 2z m2554 -2 c3 -4 20 -11 37 -15 58 -11 147 -91 135 -122
-7 -19 -121 -19 -160 1 -15 8 -34 15 -41 15 -18 0 -65 47 -65 65 0 21 38 11
118 -32 35 -19 69 -32 75 -30 7 3 4 8 -8 13 -11 4 -40 24 -65 44 -25 21 -53
40 -63 43 -10 4 -15 11 -12 17 8 12 42 13 49 1z m-1449 -100 c-3 -6 -11 -11
-17 -11 -6 0 -6 6 2 15 14 17 26 13 15 -4z m918 -19 c15 -16 25 -31 22 -35 -3
-4 -2 -5 1 -3 7 6 56 -19 101 -52 l33 -23 22 21 c21 20 23 20 27 3 2 -10 10
-27 17 -38 20 -29 18 -31 -23 -27 -45 4 -162 58 -170 78 -3 8 -11 14 -19 14
-15 0 -54 56 -54 78 0 19 14 14 43 -16z m-1818 -4 c-49 -31 -62 -39 -100 -59
-22 -11 -51 -25 -65 -30 -18 -7 -10 -8 29 -4 30 2 57 8 60 13 8 11 84 33 90
26 8 -8 -41 -44 -59 -44 -9 0 -21 -5 -27 -11 -12 -12 -190 -16 -201 -4 -9 8
10 36 34 49 10 6 22 16 27 23 4 6 22 15 40 18 17 4 37 11 42 15 13 11 50 17
105 19 39 1 42 0 25 -11z m2232 -6 c10 -6 29 -15 43 -21 58 -27 79 -43 85 -62
4 -11 4 -23 2 -26 -11 -10 -179 -5 -190 6 -6 6 -18 11 -26 11 -19 0 -68 36
-60 44 5 5 65 -13 86 -27 7 -4 36 -10 65 -13 l53 -4 -35 13 c-68 26 -100 41
-100 49 0 4 -5 8 -11 8 -6 0 -23 10 -37 21 l-27 22 67 -6 c37 -3 75 -10 85
-15z m-2045 -74 c-6 -6 -15 -8 -19 -4 -4 4 -1 11 7 16 19 12 27 3 12 -12z
m1524 -173 c33 -17 42 -36 43 -86 2 -64 23 -67 80 -14 37 35 59 47 83 48 l33
2 0 -50 c-1 -27 -3 -66 -5 -85 l-5 -35 60 -3 c32 -2 65 -8 72 -14 19 -15 16
-42 -7 -63 -11 -10 -20 -24 -20 -32 0 -21 -21 -15 -27 8 -5 19 -11 21 -53 16
-42 -5 -49 -3 -59 17 -20 36 -48 49 -72 32 -19 -13 -52 -11 -74 4 -5 4 -28 11
-50 15 -22 4 -44 10 -50 15 -5 4 -19 10 -30 13 -17 4 -17 5 4 6 22 1 23 4 17
48 -7 56 -36 122 -53 123 -24 0 -13 20 15 25 15 4 34 10 42 15 21 12 24 12 56
-5z m-1477 -41 c36 -8 38 -17 11 -44 -12 -12 -20 -33 -20 -55 0 -24 -5 -35
-15 -35 -17 0 -20 -16 -5 -25 6 -4 8 -10 5 -15 -3 -4 2 -13 10 -20 26 -21 17
-27 -60 -39 -41 -7 -75 -17 -75 -22 0 -13 -47 -11 -70 3 -24 15 -53 1 -58 -28
-7 -40 -12 -48 -24 -36 -18 18 -88 15 -88 -3 0 -18 -16 -20 -27 -2 -4 6 -17
17 -28 23 -24 13 -32 66 -13 82 8 6 45 12 83 14 l70 3 -3 49 c-2 48 16 86 40
86 11 0 81 -51 86 -62 2 -5 12 -8 22 -8 19 0 30 26 30 74 0 55 46 76 129 60z
m161 -93 c2 -1 -14 -19 -35 -41 -30 -31 -47 -40 -72 -40 -29 0 -33 3 -33 26 0
50 13 59 77 57 32 -1 60 -2 63 -2z m734 -30 c3 -4 53 -11 111 -15 59 -4 114
-11 123 -16 9 -5 56 -14 105 -21 48 -6 89 -15 92 -19 3 -5 26 -12 50 -16 25
-3 48 -10 50 -15 3 -4 26 -11 50 -15 25 -3 48 -10 51 -15 3 -5 14 -9 24 -9 18
0 18 -1 2 -32 -9 -18 -29 -43 -44 -57 -38 -35 -36 -51 7 -51 19 0 35 5 35 10
0 6 9 10 19 10 11 0 38 19 60 42 23 23 44 38 48 34 14 -14 -23 -60 -67 -82
l-45 -23 52 -1 c55 0 126 29 142 58 7 12 12 13 23 5 7 -6 15 -11 18 -11 3 -1
18 -5 33 -11 16 -6 34 -11 42 -11 8 0 17 -4 20 -10 3 -5 28 -12 56 -16 27 -4
52 -11 55 -15 7 -12 121 -11 129 1 3 6 14 10 24 10 10 0 31 10 46 22 l28 22
-5 -60 c-4 -41 -16 -79 -38 -120 -17 -32 -34 -80 -37 -106 -3 -27 -10 -48 -14
-48 -5 0 -9 -21 -9 -47 -2 -135 -35 -183 -127 -183 -29 0 -53 4 -53 9 0 4 -23
11 -51 14 -28 4 -56 11 -63 16 -6 5 -28 12 -49 16 -20 4 -40 11 -43 16 -2 5
-24 14 -47 20 -23 6 -44 14 -47 18 -8 10 -96 51 -111 51 -8 0 -24 6 -35 14
-11 8 -37 17 -57 21 -20 4 -37 11 -37 16 0 4 -21 11 -47 15 -27 3 -52 10 -58
14 -5 5 -46 13 -90 20 -44 7 -88 16 -98 22 -10 5 -72 12 -138 15 -66 3 -122
10 -125 15 -7 11 -261 11 -268 0 -3 -5 -61 -12 -128 -16 -68 -4 -124 -11 -126
-16 -2 -6 -16 -10 -30 -10 -46 0 -182 -23 -182 -31 0 -4 -18 -10 -40 -14 -22
-4 -42 -10 -45 -15 -3 -4 -22 -11 -42 -15 -21 -4 -43 -11 -49 -16 -7 -5 -16
-9 -20 -8 -13 2 -74 -24 -74 -32 0 -4 -13 -10 -29 -14 -16 -3 -46 -15 -67 -26
-21 -10 -46 -19 -56 -19 -10 0 -18 -4 -18 -10 0 -5 -16 -12 -35 -16 -19 -3
-38 -10 -41 -15 -2 -5 -27 -11 -55 -15 -27 -4 -52 -11 -55 -15 -9 -15 -98 -8
-129 10 -35 20 -55 54 -55 93 0 15 -4 29 -9 32 -4 3 -11 38 -14 78 -3 45 -13
89 -26 115 -12 23 -21 46 -21 52 0 5 -5 11 -11 13 -6 2 -14 36 -17 77 l-5 73
27 -17 c23 -15 44 -17 152 -13 82 3 129 9 133 17 4 7 29 13 54 15 35 2 51 -2
64 -16 9 -10 22 -18 30 -18 7 0 13 -4 13 -9 0 -17 95 -30 168 -24 40 3 72 9
72 14 0 4 -13 17 -29 29 -17 11 -33 31 -37 43 -4 12 -10 24 -14 27 -4 3 -10
15 -14 27 -6 19 -2 22 51 33 32 7 63 16 68 20 6 4 25 11 43 15 18 4 45 13 60
21 15 8 38 14 53 14 14 0 29 4 35 9 5 5 50 15 99 21 50 6 98 16 109 22 10 5
61 12 113 15 51 3 96 10 99 14 7 12 331 12 338 0z m469 2 c8 -7 -47 -43 -66
-43 -15 0 -48 36 -40 44 9 8 98 8 106 -1z m-1886 -27 c3 -2 7 -23 10 -45 5
-34 2 -42 -13 -47 -11 -3 -27 -10 -36 -15 -10 -5 -62 -9 -115 -9 -91 0 -100
-2 -125 -25 -26 -24 -26 -26 -21 -121 4 -63 12 -108 24 -132 18 -33 18 -36 1
-47 -9 -7 -41 -15 -69 -19 l-53 -7 -1 73 c-1 40 -4 83 -7 95 -10 31 -76 107
-133 150 -39 30 -47 40 -37 49 29 28 116 65 177 75 36 6 75 15 86 20 36 16
297 20 312 5z m2801 -5 c9 -5 46 -14 82 -21 36 -6 66 -16 68 -21 2 -4 18 -11
35 -14 18 -4 43 -15 57 -25 l24 -18 -71 -71 c-91 -91 -118 -144 -115 -230 l2
-64 -51 7 c-72 10 -91 24 -83 61 4 17 12 33 18 37 6 4 12 47 14 105 5 133 1
137 -154 141 -63 2 -114 8 -114 13 0 5 -8 9 -18 9 -9 0 -23 9 -29 20 -10 15
-9 25 5 49 l17 31 148 0 c81 0 155 -4 165 -9z m-632 -92 c3 -6 -3 -24 -15 -40
-11 -15 -21 -33 -21 -39 0 -5 -5 -10 -12 -10 -6 0 -20 -7 -30 -17 -27 -24 -35
-7 -10 20 12 13 22 30 22 38 0 38 49 75 66 48z m-1848 -41 c7 -7 12 -18 12
-25 0 -8 9 -32 19 -53 11 -22 17 -40 14 -40 -14 0 -83 80 -88 103 -6 22 -4 27
12 27 10 0 24 -5 31 -12z m1956 -20 c-9 -30 -31 -55 -54 -61 -14 -4 -17 -1
-13 12 20 56 84 102 67 49z m-2067 -48 c3 -11 9 -20 14 -20 4 0 13 -9 19 -20
11 -20 10 -20 -22 -7 -19 8 -32 20 -30 28 2 8 0 11 -4 7 -8 -9 -34 9 -34 23 0
5 12 9 26 9 17 0 28 -6 31 -20z m68 -20 c21 -22 34 -40 28 -40 -17 0 -63 40
-63 55 0 7 -6 16 -12 18 -7 3 -8 6 -3 6 6 1 29 -17 50 -39z m-1076 -71 c36 -6
71 -15 76 -19 6 -5 27 -11 48 -15 20 -4 37 -11 37 -16 0 -4 23 -11 50 -15 28
-4 53 -11 56 -15 3 -5 27 -9 55 -9 l49 0 0 -154 c0 -85 -3 -161 -6 -170 -8
-22 -139 -22 -180 -1 -16 8 -50 18 -76 21 -27 4 -48 10 -48 15 0 4 -21 11 -47
14 -27 3 -56 10 -65 16 -23 12 -128 12 -128 0 0 -5 -18 -12 -40 -16 -31 -5
-51 -19 -100 -71 -33 -36 -60 -72 -60 -80 0 -8 -4 -12 -10 -9 -5 3 -10 19 -10
35 0 16 5 32 10 35 6 3 10 20 10 36 0 17 12 56 27 87 14 31 27 63 29 70 3 18
-29 32 -75 32 -38 0 -133 -39 -146 -60 -11 -18 -26 -11 -16 8 4 9 21 43 36 75
34 69 107 140 186 180 68 35 219 46 338 26z m4391 -23 c30 -15 66 -33 79 -40
29 -17 111 -97 111 -109 0 -5 9 -21 19 -36 11 -15 23 -40 27 -57 4 -16 12 -32
18 -36 8 -6 8 -8 0 -8 -6 0 -19 9 -29 20 -47 52 -165 79 -208 47 -16 -11 -16
-16 12 -70 21 -41 32 -80 37 -130 l7 -72 -36 45 c-44 57 -97 98 -137 106 -16
4 -30 10 -30 15 0 12 -127 12 -134 0 -3 -4 -29 -11 -57 -14 -28 -4 -56 -10
-63 -16 -6 -5 -38 -14 -71 -21 -33 -7 -64 -17 -69 -22 -6 -4 -40 -8 -77 -8
-52 0 -68 4 -73 16 -3 9 -6 85 -6 170 l0 154 44 0 c25 0 47 4 50 9 3 5 26 12
51 15 24 4 47 11 50 15 2 5 22 12 42 16 21 4 43 11 48 15 22 18 115 29 225 26
101 -3 122 -6 170 -30z m-2368 -348 c1 -95 4 -139 5 -98 2 41 8 79 13 84 6 6
10 50 10 99 l0 90 42 -7 c22 -4 45 -9 50 -12 11 -7 10 -77 -1 -89 -4 -6 -14
-39 -20 -74 -7 -35 -16 -71 -20 -80 -28 -58 -41 -89 -47 -114 -14 -61 -48 -41
-64 39 -6 29 -15 56 -19 59 -5 2 -11 28 -15 57 -4 29 -11 57 -16 63 -5 6 -12
41 -16 77 l-7 67 39 4 c22 2 45 4 52 5 9 2 12 -39 14 -170z m-237 131 c-10
-29 -103 -129 -121 -129 -8 0 -14 -6 -14 -12 0 -7 -7 -4 -16 7 -32 41 -1 145
43 145 18 0 16 -14 -7 -62 -11 -23 -18 -43 -16 -45 6 -6 66 80 66 94 0 7 11
13 24 13 14 0 28 5 31 11 11 17 17 2 10 -22z m530 21 c3 -5 21 -10 38 -10 33
-1 32 1 76 -104 18 -45 22 -26 6 34 -8 30 -15 56 -15 58 0 1 8 2 19 2 18 0 30
-36 35 -110 1 -14 5 -31 10 -38 4 -7 5 -16 2 -20 -10 -9 -196 166 -196 185 0
15 16 17 25 3z m-95 -58 c0 -10 7 -27 15 -39 8 -11 17 -39 21 -62 4 -23 11
-44 15 -47 15 -9 22 25 9 41 -14 17 -5 49 11 39 12 -7 8 -139 -5 -151 -8 -8
-30 21 -52 67 -9 19 -22 42 -29 50 -14 17 -9 120 6 120 5 0 9 -8 9 -18z m-336
-91 c5 -39 2 -58 -14 -89 -18 -33 -55 -60 -67 -48 -2 2 -9 31 -15 65 -11 58
-10 63 10 84 l22 21 2 -54 c1 -47 2 -49 5 -15 3 22 9 44 14 50 5 5 9 20 9 33
0 44 27 6 34 -47z"></path>
<path d="M6492 4458 c-7 -7 -12 -19 -12 -27 0 -11 4 -10 20 4 21 19 26 35 12
35 -4 0 -13 -5 -20 -12z"></path>
<path d="M684 4042 c17 -18 34 -32 38 -32 15 0 0 18 -35 41 l-32 22 29 -31z"></path>
<path d="M6310 4064 c0 -8 5 -12 10 -9 6 4 8 11 5 16 -9 14 -15 11 -15 -7z"></path>
<path d="M780 3435 c13 -14 28 -25 33 -25 6 0 0 11 -13 25 -13 14 -28 25 -33
25 -6 0 0 -11 13 -25z"></path>
<path d="M6210 3449 c0 -5 5 -7 10 -4 6 3 10 8 10 11 0 2 -4 4 -10 4 -5 0 -10
-5 -10 -11z"></path>
<path d="M6155 3414 c-16 -14 -39 -30 -50 -35 -16 -7 -14 -8 10 -3 17 3 32 10
34 15 2 6 14 14 27 19 13 5 24 14 24 20 0 16 -13 11 -45 -16z"></path>
<path d="M985 3040 c3 -5 13 -10 21 -10 8 0 12 5 9 10 -3 6 -13 10 -21 10 -8
0 -12 -4 -9 -10z"></path>
<path d="M3170 3024 c-8 -8 -37 -33 -64 -55 l-49 -41 74 7 c73 6 119 20 119
37 0 4 -18 8 -40 8 -46 0 -48 5 -18 37 24 26 4 32 -22 7z"></path>
<path d="M3372 2926 c-28 -30 -52 -58 -52 -62 0 -13 88 5 132 28 l43 23 -42 3
c-44 3 -51 10 -32 29 6 6 10 16 7 23 -2 6 -27 -13 -56 -44z"></path>
<path d="M3182 2860 c-18 -16 -32 -33 -32 -38 0 -5 -7 -15 -15 -22 -8 -7 -12
-16 -9 -22 4 -5 11 -5 18 1 7 6 16 8 19 4 8 -8 74 25 102 51 20 18 19 19 -29
12 -49 -6 -49 -6 -31 14 29 32 12 32 -23 0z"></path>
<path d="M3064 2670 c-12 -20 -33 -110 -25 -110 7 0 67 62 92 94 13 18 12 19
-18 13 -20 -4 -33 -2 -35 5 -3 8 -7 7 -14 -2z"></path>
<path d="M2881 2482 c-5 -9 -12 -34 -16 -55 -7 -37 1 -47 22 -26 6 6 21 16 34
23 12 6 26 22 31 35 7 21 6 23 -17 17 -18 -5 -25 -2 -25 9 0 20 -17 19 -29 -3z"></path>
<path d="M3047 2372 c-14 -14 -19 -14 -26 -4 -9 15 -21 -30 -21 -81 l0 -31 34
33 c36 34 53 78 39 92 -5 5 -17 1 -26 -9z"></path>
<path d="M3853 2134 c-3 -8 -12 -13 -19 -10 -8 3 -14 -1 -14 -10 0 -8 7 -17
15 -20 8 -4 15 -12 15 -19 0 -7 9 -23 20 -36 l19 -24 1 52 c0 56 -7 83 -21 83
-5 0 -12 -7 -16 -16z"></path>
<path d="M2936 2102 c-3 -20 -6 -48 -5 -62 0 -25 0 -25 9 -2 5 12 14 22 19 22
15 0 51 42 51 59 0 11 -11 17 -34 18 -31 1 -34 -1 -40 -35z"></path>
<path d="M3101 2113 c0 -12 -5 -25 -11 -28 -13 -8 -13 -105 0 -105 6 0 14 8
17 18 4 9 22 36 40 60 18 24 33 50 33 58 0 21 -23 17 -38 -6 -16 -26 -30 -25
-35 3 -4 22 -4 22 -6 0z"></path>
<path d="M3416 2073 c-3 -21 -6 -49 -6 -62 l0 -24 25 23 c14 13 25 29 25 37 0
7 4 13 9 13 13 0 21 39 10 46 -6 3 -16 0 -24 -6 -11 -9 -15 -9 -15 -1 0 27
-18 7 -24 -26z"></path>
<path d="M3760 2085 c0 -12 -6 -15 -20 -10 -14 4 -20 2 -20 -9 0 -8 4 -17 9
-20 4 -3 12 -25 15 -48 l7 -43 20 43 c21 46 22 93 2 100 -7 2 -13 -4 -13 -13z"></path>
<path d="M3222 2017 c2 -29 8 -52 16 -55 6 -2 12 2 12 8 0 7 9 23 20 37 31 40
26 59 -15 60 l-36 1 3 -51z"></path>
<path d="M3665 2047 c-13 -8 -19 -20 -17 -37 8 -77 23 -90 41 -39 13 36 15 89
4 88 -5 -1 -17 -6 -28 -12z"></path>
<path d="M3285 1932 c-8 -9 -6 -102 3 -102 13 0 50 55 57 83 6 23 4 26 -24 25
-17 -1 -33 -3 -36 -6z"></path>
<path d="M3520 1913 c0 -13 5 -23 10 -23 6 0 10 -13 10 -28 0 -63 32 -38 44
35 l7 41 -35 -1 c-31 -1 -36 -4 -36 -24z"></path>
<path d="M3740 1929 c0 -7 -10 -9 -25 -7 -28 6 -29 5 -15 -20 5 -9 17 -35 25
-57 13 -31 18 -36 25 -25 13 20 13 120 0 120 -5 0 -10 -5 -10 -11z"></path>
<path d="M3046 1908 c-3 -13 -6 -40 -6 -61 0 -35 2 -37 20 -27 11 6 20 17 20
24 0 8 7 19 15 26 8 7 15 24 15 38 0 24 -1 25 -20 7 -18 -16 -20 -16 -20 -2 0
25 -17 21 -24 -5z"></path>
<path d="M5640 2720 c0 -5 5 -10 10 -10 6 0 10 5 10 10 0 6 -4 10 -10 10 -5 0
-10 -4 -10 -10z"></path>
<path d="M2555 2089 c-11 -17 1 -21 15 -4 8 9 8 15 2 15 -6 0 -14 -5 -17 -11z"></path>
<path d="M3186 1543 c-7 -8 -12 -9 -55 -11 -19 -2 -21 -5 -11 -16 6 -8 10 -28
9 -43 -2 -15 0 -34 4 -41 6 -8 0 -12 -21 -12 -28 0 -30 3 -35 47 -3 31 -1 51
6 55 7 4 0 8 -16 8 -18 0 -30 -6 -33 -17 -11 -34 -27 -63 -36 -63 -5 0 -12 10
-17 23 -15 40 -37 51 -63 33 -18 -13 -19 -16 -5 -16 16 0 23 -36 18 -92 -2
-13 5 -18 25 -18 26 0 26 1 11 18 -19 20 -23 52 -7 52 6 0 10 -5 10 -11 0 -16
36 -59 44 -52 3 3 6 19 6 36 0 19 4 27 13 24 6 -2 11 -16 9 -31 -3 -24 0 -26
33 -26 19 0 35 5 35 11 0 8 6 7 17 -2 13 -11 17 -11 20 -1 3 6 12 12 20 12 11
0 13 4 5 13 -5 6 -9 23 -7 37 1 14 3 33 4 43 1 10 9 17 22 17 19 0 21 -5 17
-55 -3 -50 -1 -55 17 -55 18 0 20 5 17 42 l-5 42 41 -42 c22 -23 45 -42 51
-42 6 0 11 20 11 48 0 26 3 57 6 70 6 20 3 22 -32 22 -35 -1 -37 -2 -21 -14
17 -13 24 -56 9 -56 -4 0 -23 16 -42 35 -33 34 -58 43 -74 28z"></path>
<path d="M3375 1516 l-26 -34 19 -33 c15 -27 26 -35 54 -37 23 -2 41 3 52 13
22 23 20 42 -2 22 -39 -35 -82 -15 -82 39 0 26 5 33 27 39 21 5 32 2 44 -14
23 -28 29 -26 29 9 0 29 -2 30 -44 30 -39 0 -48 -4 -71 -34z"></path>
<path d="M3517 1495 c4 -37 2 -60 -7 -70 -11 -13 -5 -15 49 -15 46 0 63 4 68
15 9 25 -5 30 -27 10 -22 -20 -50 -14 -50 11 0 12 6 15 25 10 19 -5 27 -2 32
11 4 10 11 21 16 24 5 4 7 19 3 33 -6 24 -11 26 -60 26 l-55 0 6 -55z m79 10
c-25 -19 -36 -19 -36 0 0 10 10 15 28 15 26 -1 26 -1 8 -15z"></path>
<path d="M3658 1481 c2 -30 0 -51 -7 -55 -23 -15 -11 -36 20 -36 29 0 30 2 24
30 -5 23 -3 30 9 30 9 0 16 -8 16 -18 0 -24 35 -57 44 -43 4 6 2 19 -4 30 -14
27 -13 37 6 56 15 15 15 17 -1 35 -13 15 -31 20 -65 20 l-47 0 5 -49z m80 11
c2 -7 -6 -12 -17 -12 -21 0 -27 11 -14 24 9 9 26 2 31 -12z"></path>
<path d="M3878 1460 c3 -25 0 -40 -7 -40 -6 0 -11 -7 -11 -15 0 -8 -5 -15 -12
-15 -6 0 -3 -7 8 -15 10 -8 41 -15 67 -15 l49 0 -3 34 c-2 19 3 41 11 51 13
15 12 19 -9 36 -13 11 -39 19 -60 19 l-37 0 4 -40z m72 5 c0 -10 -10 -15 -26
-15 -22 0 -25 2 -14 15 7 8 19 15 26 15 8 0 14 -7 14 -15z m0 -59 c0 -13 -20
-26 -41 -26 -5 0 -9 9 -9 20 0 15 7 20 25 20 15 0 25 -6 25 -14z"></path>
<path d="M2764 1479 c-3 -6 -3 -14 2 -18 28 -20 47 -101 24 -101 -5 0 -10 7
-10 16 0 8 -4 12 -10 9 -21 -13 -10 -35 18 -35 29 0 60 34 42 45 -6 3 -10 26
-10 51 0 40 -2 44 -24 44 -14 0 -28 -5 -32 -11z"></path>
<path d="M4010 1470 c0 -5 4 -10 9 -10 14 0 -6 -83 -23 -95 -21 -16 -10 -25
31 -25 18 0 33 -4 33 -10 0 -14 33 -13 48 2 21 21 13 29 -23 22 -31 -5 -35 -4
-35 15 0 12 6 21 15 21 8 0 15 -5 15 -11 0 -5 5 -7 10 -4 19 12 11 45 -10 45
-11 0 -20 7 -20 15 0 21 24 19 45 -5 16 -18 19 -18 30 -3 8 11 14 13 19 5 10
-17 -4 -79 -20 -93 -21 -18 -17 -29 12 -29 14 0 23 4 20 9 -7 11 4 71 13 71 7
0 29 -48 45 -94 5 -15 9 -16 21 -6 8 7 15 21 15 30 0 10 12 33 27 50 21 26 24
33 12 41 -29 18 -44 10 -44 -23 0 -41 -21 -48 -30 -9 -8 38 -49 68 -104 77
-23 4 -44 11 -47 15 -7 12 -64 11 -64 -1z"></path>
<path d="M2600 1441 c0 -5 -16 -12 -36 -16 -36 -6 -36 -7 -15 -21 11 -8 21
-24 21 -34 0 -10 5 -22 10 -25 6 -3 10 -13 10 -21 0 -18 -49 -19 -54 -1 -2 6
-8 21 -12 32 -4 11 -8 28 -8 37 -1 19 -7 20 -49 5 l-28 -9 23 -12 c15 -8 26
-25 32 -51 14 -66 15 -68 29 -57 6 5 28 13 47 16 19 4 44 11 55 15 11 5 32 13
48 20 29 11 38 41 12 41 -8 0 -15 -7 -15 -15 0 -17 -45 -21 -55 -5 -11 18 5
32 22 18 13 -10 14 -8 11 12 -2 19 -9 25 -25 24 -14 0 -23 5 -23 14 0 11 8 13
35 8 36 -7 44 1 23 22 -14 14 -58 16 -58 3z"></path>
<path d="M4320 1356 c0 -20 -4 -36 -10 -36 -5 0 -10 -6 -10 -14 0 -8 -6 -16
-12 -19 -25 -9 16 -37 63 -43 39 -5 47 -3 53 12 4 11 3 20 -3 22 -19 6 -12 42
8 42 10 0 21 9 24 20 4 15 0 20 -13 20 -10 0 -20 4 -22 9 -1 5 -20 12 -40 16
l-38 7 0 -36z m64 -2 c22 -8 20 -21 -4 -27 -15 -4 -20 0 -20 14 0 21 1 22 24
13z m-24 -59 c0 -8 7 -15 15 -15 8 0 15 -4 15 -10 0 -5 -13 -10 -30 -10 -25 0
-30 4 -30 25 0 16 6 25 15 25 8 0 15 -7 15 -15z"></path>
<path d="M2324 1346 c-11 -8 -37 -17 -57 -21 -40 -8 -50 -29 -17 -38 11 -3 20
-12 20 -21 0 -9 5 -16 10 -16 14 0 13 -33 -2 -48 -16 -16 -48 -15 -48 2 0 7
-7 19 -15 26 -8 7 -15 23 -15 36 0 30 -29 32 -55 4 -15 -16 -15 -20 -3 -20 19
0 48 -32 48 -53 0 -22 43 -32 83 -20 39 10 47 46 23 95 -10 20 -13 35 -7 41
17 17 40 -1 47 -38 3 -19 10 -38 15 -41 5 -3 6 -10 3 -16 -4 -7 2 -8 17 -3 13
4 26 12 27 16 2 5 9 9 16 9 19 0 56 44 56 67 0 11 -8 27 -18 36 -23 21 -100
22 -128 3z m88 -13 c22 -20 24 -56 3 -73 -23 -19 -42 -5 -49 34 -11 56 9 73
46 39z"></path>
<path d="M4453 1314 c-1 -22 -10 -45 -23 -59 -25 -27 -19 -45 15 -45 18 0 22
4 18 20 -7 26 22 27 36 3 9 -16 10 -16 11 5 0 12 5 23 10 23 6 1 15 2 20 3 6
0 15 8 20 16 7 11 10 7 10 -18 0 -22 -8 -41 -26 -59 -14 -14 -24 -26 -22 -27
2 0 13 -7 25 -13 30 -17 35 -16 31 5 -3 23 24 82 39 82 7 0 10 -7 7 -15 -7
-18 17 -20 34 -3 9 9 12 7 12 -13 -1 -30 -32 -69 -56 -69 -16 0 -16 -1 1 -20
21 -23 55 -27 55 -5 0 23 34 84 48 85 6 0 12 -9 12 -20 0 -24 25 -27 34 -4 4
9 5 18 3 20 -12 12 -223 114 -247 119 -16 4 -32 11 -35 16 -14 22 -31 7 -32
-27z m77 -19 c0 -8 -9 -15 -20 -15 -11 0 -20 7 -20 15 0 8 9 15 20 15 11 0 20
-7 20 -15z"></path>
<path d="M2068 1163 c4 -77 11 -90 41 -74 24 13 28 31 6 31 -8 0 -15 7 -15 15
0 8 7 16 15 17 8 0 21 1 28 2 6 1 11 -7 9 -16 -4 -22 2 -22 33 -2 l25 16 -38
27 c-101 70 -108 69 -104 -16z"></path>
<path d="M3639 4491 c-47 -49 -50 -55 -47 -99 2 -38 8 -49 28 -60 31 -16 162
-12 168 6 6 19 67 44 99 40 60 -7 35 -62 -46 -99 -25 -12 -54 -25 -64 -31 -10
-5 -22 -6 -27 -3 -5 3 -11 1 -14 -4 -4 -5 -41 -12 -84 -16 -42 -4 -81 -11 -87
-15 -5 -4 -57 -10 -115 -13 -68 -3 -116 -11 -135 -21 -16 -9 -36 -16 -44 -16
-8 0 -21 -7 -30 -14 -9 -8 -37 -33 -62 -55 -66 -58 -99 -129 -99 -213 0 -66 0
-67 51 -123 78 -84 76 -84 185 -30 52 26 94 50 94 53 0 4 -14 15 -31 25 -17 9
-33 26 -36 37 -3 11 -9 20 -14 20 -5 0 -9 18 -9 40 0 51 28 81 84 87 22 2 50
8 61 13 11 5 76 13 143 19 68 6 129 14 135 19 7 6 27 13 45 17 29 6 75 28 142
66 13 8 34 24 46 37 12 12 26 22 32 22 6 0 13 9 17 19 3 11 12 22 20 25 8 3
17 21 21 41 3 19 10 38 15 41 16 9 10 78 -10 116 -44 88 -91 109 -254 115
l-128 6 -50 -52z"></path>
<path d="M3505 3983 c-70 -13 -65 -5 -65 -108 l0 -94 38 6 c42 7 52 17 52 55
0 15 5 30 10 33 14 9 12 91 -2 102 -7 5 -22 8 -33 6z"></path>
<path d="M410 341 c0 -5 7 -14 15 -21 12 -10 15 -38 15 -131 0 -102 -2 -119
-16 -119 -9 0 -14 -6 -12 -12 6 -17 137 -23 152 -8 8 8 6 14 -6 21 -16 9 -18
27 -18 144 l0 135 -65 0 c-36 0 -65 -4 -65 -9z"></path>
<path d="M566 333 c13 -31 17 -114 5 -126 -6 -6 -11 -20 -11 -30 0 -17 5 -19
41 -14 60 8 79 30 79 92 0 65 -27 95 -84 95 -33 0 -37 -3 -30 -17z"></path>
<path d="M700 295 c0 -30 5 -55 10 -55 6 0 10 7 10 15 0 8 5 15 10 15 6 0 10
8 10 18 0 10 7 28 16 40 15 21 14 22 -20 22 l-36 0 0 -55z"></path>
<path d="M780 210 c0 -121 -2 -140 -16 -140 -9 0 -14 -6 -12 -12 6 -17 137
-23 152 -8 8 8 6 14 -6 21 -16 9 -18 27 -18 144 l0 135 -50 0 -50 0 0 -140z"></path>
<path d="M900 338 c0 -25 28 -92 39 -96 6 -2 11 1 11 8 0 6 5 8 10 5 6 -3 10
-14 10 -23 0 -20 49 -72 67 -72 15 0 64 -29 75 -45 13 -18 9 -33 -12 -38 -29
-8 -26 -37 5 -37 36 0 105 71 105 108 0 34 -45 78 -112 111 -50 23 -59 40 -33
61 23 19 18 30 -15 30 -30 0 -70 -32 -70 -57 0 -8 -4 -11 -10 -8 -5 3 -10 19
-10 36 0 26 -3 29 -30 29 -17 0 -30 -5 -30 -12z"></path>
<path d="M1102 330 c7 -11 18 -20 25 -20 7 0 20 -16 29 -35 23 -49 34 -44 34
19 l0 53 -50 2 c-47 1 -49 0 -38 -19z"></path>
<path d="M1220 341 c0 -5 7 -14 15 -21 23 -19 22 -222 -1 -245 -25 -25 -5 -37
57 -33 l54 3 3 153 3 152 -66 0 c-36 0 -65 -4 -65 -9z"></path>
<path d="M1360 344 c0 -3 7 -12 15 -20 12 -12 15 -42 15 -131 0 -99 -3 -118
-17 -129 -17 -12 -17 -13 0 -19 21 -9 76 16 103 46 16 18 19 36 19 110 0 87 0
89 -33 119 -24 21 -43 30 -68 30 -19 0 -34 -3 -34 -6z"></path>
<path d="M1748 313 c-9 -21 -19 -54 -23 -73 -4 -19 -13 -44 -20 -55 -7 -11
-16 -36 -20 -55 -4 -19 -11 -39 -15 -45 -5 -5 -11 -27 -15 -47 -7 -34 -5 -38
14 -38 13 0 21 6 21 18 1 9 9 35 20 57 11 22 19 50 20 63 0 12 4 22 8 22 5 0
15 26 22 58 7 31 19 66 26 77 20 28 18 55 -4 55 -11 0 -24 -14 -34 -37z"></path>
<path d="M2010 343 c-23 -9 -60 -45 -60 -60 0 -7 -4 -13 -10 -13 -6 0 -10 -28
-10 -63 0 -101 46 -167 116 -167 27 0 32 21 9 40 -12 10 -15 37 -15 120 0 83
3 110 15 120 8 7 15 16 15 21 0 10 -36 11 -60 2z"></path>
<path d="M2090 342 c0 -3 7 -13 16 -23 9 -10 24 -32 34 -51 27 -51 44 -43 48
24 l3 57 -51 -1 c-27 0 -50 -3 -50 -6z"></path>
<path d="M2300 315 c0 -26 -4 -33 -14 -29 -11 4 -16 -6 -21 -40 -4 -26 -11
-49 -16 -52 -5 -2 -11 -27 -15 -55 -4 -33 -13 -55 -25 -62 -34 -21 -22 -37 26
-37 44 0 58 13 36 35 -11 12 4 104 19 119 6 6 10 23 10 40 0 47 18 18 26 -41
6 -50 5 -53 -16 -53 -28 0 -21 -24 9 -28 20 -3 22 -8 17 -38 l-7 -34 76 0 c79
0 88 7 60 44 -8 10 -12 23 -9 28 3 5 1 14 -4 21 -6 7 -13 38 -17 70 -4 31 -11
60 -16 63 -5 3 -9 16 -9 29 0 47 -9 55 -61 55 l-49 0 0 -35z"></path>
<path d="M2500 343 c0 -3 8 -15 17 -25 14 -15 16 -36 14 -121 -2 -71 -7 -107
-17 -118 -26 -29 -17 -40 33 -37 26 2 48 9 51 16 2 6 -2 12 -10 12 -21 0 -38
49 -38 112 0 55 10 74 24 46 3 -7 15 -26 26 -43 11 -16 26 -42 32 -57 7 -16
16 -28 19 -28 4 0 10 -14 14 -30 6 -27 10 -30 46 -30 l39 0 0 64 c0 36 -4 68
-10 71 -5 3 -10 11 -10 16 0 6 5 7 10 4 6 -4 10 16 10 53 0 41 5 63 15 72 26
22 16 30 -35 30 -27 0 -50 -4 -50 -10 0 -5 7 -10 15 -10 8 0 15 -7 15 -15 0
-8 5 -15 10 -15 6 0 10 -20 10 -45 0 -25 -4 -45 -8 -45 -5 0 -21 24 -36 53
-44 86 -45 87 -120 87 -36 0 -66 -3 -66 -7z"></path>
<path d="M2835 309 l-37 -41 4 -81 c2 -52 8 -82 16 -85 6 -2 12 -10 12 -17 0
-8 9 -17 20 -20 11 -3 20 -11 20 -16 0 -13 57 -11 65 2 4 5 0 18 -9 28 -23 25
-23 222 -1 241 24 20 18 30 -19 30 -27 0 -41 -8 -71 -41z"></path>
<path d="M2966 324 c9 -13 20 -24 24 -24 4 0 11 -12 15 -27 6 -26 21 -43 38
-43 4 0 7 26 7 58 l0 59 -50 1 -50 1 16 -25z"></path>
<path d="M3070 341 c0 -5 7 -11 15 -15 12 -4 15 -29 15 -131 0 -104 -2 -125
-15 -125 -8 0 -15 -7 -15 -15 0 -12 13 -15 60 -15 l60 0 0 155 0 155 -60 0
c-33 0 -60 -4 -60 -9z"></path>
<path d="M3210 340 c0 -5 6 -10 13 -10 6 0 23 -16 37 -35 35 -48 50 -45 50 10
l0 45 -50 0 c-27 0 -50 -4 -50 -10z"></path>
<path d="M3350 341 c0 -5 7 -14 15 -21 12 -10 15 -38 15 -131 0 -102 -2 -119
-16 -119 -9 0 -14 -6 -12 -12 5 -14 119 -24 146 -13 13 5 13 8 -2 23 -13 15
-16 42 -16 150 l0 132 -65 0 c-36 0 -65 -4 -65 -9z"></path>
<path d="M3490 341 c0 -5 7 -14 15 -21 20 -17 19 -84 -1 -105 -15 -15 -15 -17
0 -34 10 -11 16 -36 16 -67 0 -61 12 -74 66 -74 43 0 60 11 66 45 2 14 -2 19
-14 17 -14 -2 -18 4 -18 31 0 21 -7 41 -20 52 l-20 18 20 14 c30 21 28 96 -2
117 -24 17 -108 22 -108 7z"></path>
<path d="M3910 321 c0 -32 -15 -50 -23 -29 -3 7 -6 3 -6 -9 -1 -12 -5 -24 -10
-28 -5 -3 -13 -30 -16 -60 -4 -31 -11 -58 -16 -61 -5 -3 -9 -17 -9 -31 0 -17
-7 -27 -20 -30 -33 -9 -17 -28 25 -31 46 -4 64 10 44 34 -14 17 -14 61 2 79 4
6 11 30 15 53 6 40 24 69 24 39 0 -8 3 -35 6 -61 6 -43 5 -46 -15 -46 -14 0
-21 -5 -18 -12 2 -7 15 -13 28 -13 26 0 38 -28 20 -49 -17 -20 -2 -26 70 -26
72 0 90 11 66 38 -8 9 -18 38 -22 65 -4 26 -11 49 -15 52 -5 3 -11 29 -15 58
-10 82 -21 97 -72 97 -41 0 -43 -1 -43 -29z"></path>
<path d="M4084 333 c3 -10 8 -31 12 -48 4 -16 10 -34 14 -40 5 -5 11 -32 15
-60 4 -27 11 -54 15 -60 5 -5 12 -26 17 -45 8 -29 14 -35 40 -38 l31 -3 7 65
c4 36 11 66 16 66 5 0 9 -9 9 -20 0 -11 4 -28 9 -38 6 -9 12 -29 16 -45 4 -21
11 -27 30 -27 15 0 25 6 25 14 0 8 5 16 11 18 6 2 11 31 12 65 1 40 5 59 13
56 7 -2 16 19 23 56 6 32 18 65 26 71 25 20 17 30 -23 30 l-38 0 1 -57 c0 -75
-18 -77 -33 -3 -12 56 -14 60 -41 60 -30 0 -41 -14 -41 -56 0 -13 -4 -24 -9
-24 -5 0 -12 -8 -14 -17 -3 -12 -5 -9 -6 7 0 15 -6 31 -13 38 -9 9 -9 15 0 24
23 23 12 28 -59 28 -62 0 -70 -2 -65 -17z"></path>
<path d="M4524 310 c4 -25 2 -40 -4 -40 -5 0 -10 6 -10 13 0 25 -20 -18 -20
-45 0 -16 -4 -28 -9 -28 -6 0 -13 -21 -16 -47 -4 -27 -15 -60 -26 -75 -28 -40
-24 -48 26 -48 33 0 45 4 45 15 0 8 -4 15 -10 15 -5 0 -10 14 -10 31 0 27 2
30 15 19 8 -7 21 -10 29 -7 21 8 38 -17 30 -47 l-6 -26 76 0 c42 0 76 3 76 7
0 3 -7 14 -15 23 -9 10 -20 46 -27 81 -6 35 -14 69 -18 74 -4 6 -11 36 -14 68
l-7 57 -56 0 -56 0 7 -40z m16 -104 c0 -14 5 -28 10 -31 22 -14 10 -35 -21
-35 -31 0 -31 1 -24 37 4 21 9 41 11 45 10 17 24 7 24 -16z"></path>
<path d="M4730 341 c0 -5 7 -14 15 -21 12 -10 15 -38 15 -131 0 -99 -3 -119
-15 -119 -8 0 -15 -7 -15 -15 0 -12 15 -15 75 -15 57 0 75 3 75 14 0 8 -7 16
-15 20 -12 4 -15 30 -15 141 l0 135 -60 0 c-33 0 -60 -4 -60 -9z"></path>
<path d="M4870 341 c0 -5 7 -14 15 -21 20 -17 19 -79 -2 -102 -15 -17 -15 -19
0 -36 11 -12 17 -36 17 -70 0 -40 4 -52 15 -52 8 0 15 -4 15 -10 0 -15 77 -12
84 3 5 9 7 9 12 0 4 -8 27 -13 65 -13 l59 0 0 155 0 155 -60 0 c-57 0 -78 -11
-45 -24 13 -5 15 -26 13 -127 -2 -90 -6 -124 -16 -127 -9 -3 -12 3 -10 14 2
13 -3 19 -14 18 -14 -1 -18 6 -18 28 0 18 -9 38 -26 53 -17 16 -22 25 -13 25
17 0 39 45 39 81 0 17 -8 34 -22 43 -24 17 -108 22 -108 7z"></path>
<path d="M5170 341 c0 -5 13 -15 29 -22 17 -8 33 -24 36 -36 3 -13 12 -23 20
-23 11 0 15 12 15 45 l0 45 -50 0 c-27 0 -50 -4 -50 -9z"></path>
<path d="M5318 327 c20 -21 22 -34 22 -125 0 -89 -3 -105 -20 -122 -30 -30
-24 -40 25 -40 45 0 58 13 35 36 -6 6 -10 44 -8 90 l3 79 23 -45 c77 -149 86
-160 128 -160 29 0 34 3 30 18 -6 20 -9 103 -7 185 1 43 6 62 21 77 11 11 20
22 20 25 0 3 -21 5 -46 5 -40 0 -45 -2 -38 -17 4 -10 9 -38 11 -63 l4 -45 -21
24 c-11 13 -20 29 -20 36 0 7 -9 24 -21 39 -19 24 -27 26 -91 26 l-71 0 21
-23z"></path>
<path d="M5610 341 c0 -5 7 -14 15 -21 12 -10 15 -37 15 -120 0 -83 -3 -110
-15 -120 -32 -27 -17 -40 45 -40 l60 0 1 33 c4 113 4 245 1 260 -4 14 -15 17
-63 17 -33 0 -59 -4 -59 -9z"></path>
<path d="M5750 340 c0 -5 4 -10 9 -10 14 0 61 -45 61 -59 0 -6 7 -11 15 -11
11 0 15 12 15 45 l0 45 -50 0 c-27 0 -50 -4 -50 -10z"></path>
<path d="M5911 324 c-13 -15 -26 -44 -28 -66 -5 -32 -1 -42 19 -61 34 -31 75
-57 91 -57 8 0 19 -6 25 -13 14 -17 4 -57 -14 -57 -19 0 -18 -19 1 -26 42 -16
115 54 115 111 0 25 -49 72 -103 99 -53 27 -64 42 -43 64 23 26 20 32 -12 32
-18 0 -37 -10 -51 -26z"></path>
<path d="M6010 343 c0 -3 16 -21 35 -40 19 -19 35 -40 35 -48 0 -8 5 -15 10
-15 6 0 10 24 10 53 l0 53 -45 2 c-25 1 -45 -1 -45 -5z"></path>
<path d="M6176 329 c-22 -17 -26 -28 -26 -73 0 -60 7 -69 87 -106 55 -26 71
-59 37 -78 -9 -5 -14 -14 -10 -21 13 -20 41 -12 74 22 26 27 32 41 32 78 0 48
-29 89 -63 89 -9 0 -31 13 -49 29 -31 28 -32 30 -15 48 9 11 17 23 17 26 0 15
-59 6 -84 -14z"></path>
<path d="M6280 342 c0 -5 11 -18 25 -30 14 -12 25 -28 25 -36 0 -7 6 -19 14
-25 17 -15 26 5 26 60 l0 39 -45 0 c-25 0 -45 -4 -45 -8z"></path>
<path d="M3240 255 c0 -9 -7 -18 -15 -21 -8 -4 -15 -14 -15 -24 0 -10 7 -23
15 -30 8 -7 15 -18 15 -26 0 -7 5 -16 10 -19 6 -4 10 20 10 64 0 41 -4 71 -10
71 -5 0 -10 -7 -10 -15z"></path>
<path d="M5200 256 c0 -8 -7 -16 -15 -20 -17 -6 -20 -42 -4 -51 5 -4 15 -18
20 -32 9 -25 10 -25 24 -7 8 12 10 23 4 29 -5 5 -9 28 -9 52 0 24 -4 43 -10
43 -5 0 -10 -6 -10 -14z"></path>
<path d="M5777 253 c-4 -10 -12 -26 -19 -35 -10 -14 -9 -20 5 -36 9 -10 17
-26 17 -35 0 -9 7 -17 15 -17 13 0 15 12 13 67 -3 64 -19 93 -31 56z"></path>
<path d="M5886 154 c-3 -8 -6 -38 -6 -65 l0 -49 44 0 c57 0 65 14 27 47 -17
15 -31 35 -31 44 0 9 -6 22 -14 28 -11 9 -15 8 -20 -5z"></path>
<path d="M970 99 c0 -59 11 -74 37 -48 8 8 13 8 17 0 10 -15 36 -14 36 2 0 8
-11 24 -24 36 -14 13 -26 33 -28 44 -2 11 -11 21 -20 23 -15 2 -18 -6 -18 -57z"></path>
<path d="M6157 153 c-11 -10 -8 -113 2 -113 6 0 13 4 16 10 4 6 13 5 24 -2 10
-6 27 -8 37 -4 16 6 15 10 -14 32 -18 14 -32 34 -32 44 0 20 -23 43 -33 33z"></path>
<path d="M2144 111 c-10 -16 -26 -32 -36 -34 -20 -6 -25 -37 -5 -37 19 0 90
77 83 89 -12 18 -24 13 -42 -18z"></path>
<path d="M2993 96 c-40 -41 -45 -56 -19 -56 20 0 76 58 76 79 0 30 -9 26 -57
-23z"></path>
<path d="M3280 129 c0 -15 -42 -59 -57 -59 -7 0 -13 -7 -13 -16 0 -12 10 -14
48 -12 l47 3 3 48 c2 37 0 47 -12 47 -9 0 -16 -5 -16 -11z"></path>
<path d="M5240 129 c0 -15 -42 -59 -57 -59 -7 0 -13 -7 -13 -16 0 -12 10 -14
48 -12 l47 3 3 48 c2 37 0 47 -12 47 -9 0 -16 -5 -16 -11z"></path>
<path d="M5820 127 c0 -17 -42 -57 -59 -57 -7 0 -11 -6 -8 -12 2 -8 21 -13 48
-13 l44 0 3 48 c2 37 0 47 -12 47 -9 0 -16 -6 -16 -13z"></path>
</g>
</svg>